<svg width="22" height="20" viewBox="0 0 22 20" fill="none" xmlns="http://www.w3.org/2000/svg">
<path d="M11.0262 3.77832L1.61816 13.034V18.187C2.30404 19.9037 3.57713 19.9997 3.57713 19.9997H18.6711C18.9091 19.9509 19.6576 19.768 20.19 19.0926C20.4578 18.7542 20.5752 18.4126 20.6316 18.187V13.034C17.4293 9.94824 14.2285 6.86405 11.0262 3.77832ZM13.7212 16.6914C13.7212 17.6976 12.8756 18.5209 11.8421 18.5209H10.4061C9.37262 18.5209 8.52702 17.6976 8.52702 16.6914V13.2886C8.52702 12.2824 9.37262 11.4591 10.4061 11.4591H11.8421C12.8756 11.4591 13.7212 12.2824 13.7212 13.2886V16.6914Z" fill="#F7C12B"/>
<path d="M0 10.6956L10.3883 0.485545C10.3883 0.485545 11.0742 -0.182216 11.7601 0.485545L16.2684 4.87478V0.676116C16.2684 0.676116 16.6599 -0.0876933 16.9542 0.00835449H18.0316C18.0316 0.00835449 18.7175 0.00835598 18.8161 0.581593V7.4513L21.9527 10.505C21.9527 10.505 22.3442 11.9366 20.8753 11.65L11.1729 2.20374L1.07736 11.65C1.07736 11.65 0 12.0326 0 10.6956Z" fill="#F7C12B"/>
</svg>
