<svg width="22" height="20" viewBox="0 0 22 20" fill="none" xmlns="http://www.w3.org/2000/svg">
<path d="M9.21824 18.2929C9.21824 18.2929 10.5709 19.2684 9.21824 20.0001H4.67041C4.67041 20.0001 1.59728 19.5123 1.22949 15.9752V11.952C1.22949 11.952 2.21261 10.6098 2.94995 11.952V15.9769C2.94995 15.9769 3.19574 18.2947 5.40776 18.2947C7.62155 18.2929 9.21824 18.2929 9.21824 18.2929Z" fill="#F7C12B"/>
<path d="M2.94971 7.92701C2.94971 7.92701 1.96659 9.26923 1.22925 7.92701V3.41434C1.22925 3.41434 1.72081 0.364944 5.28551 0H9.34177C9.34177 0 10.6944 0.975526 9.34177 1.70717H5.28551C5.28551 1.70717 2.94971 1.95105 2.94971 4.14598C2.94971 6.34091 2.94971 7.92701 2.94971 7.92701Z" fill="#F7C12B"/>
<path d="M13.1522 1.70717C13.1522 1.70717 11.7995 0.731643 13.1522 0H17.7C17.7 0 20.7732 0.487763 21.141 4.02492V8.04983C21.141 8.04983 20.1578 9.39205 19.4205 8.04983V4.02492C19.4205 4.02492 19.1747 1.70717 16.9627 1.70717C14.7507 1.70717 13.1522 1.70717 13.1522 1.70717Z" fill="#F7C12B"/>
<path d="M19.5431 11.952C19.5431 11.952 20.5262 10.6098 21.2635 11.952V16.4647C21.2635 16.4647 20.772 19.5141 17.2073 19.879H13.151C13.151 19.879 11.7983 18.9035 13.151 18.1719H17.2073C17.2073 18.1719 19.5431 17.928 19.5431 15.733C19.5431 13.5381 19.5431 11.952 19.5431 11.952Z" fill="#F7C12B"/>
<path d="M21.4183 10.5486H0.583505C0.261692 10.5486 0 10.2872 0 9.96962C0 9.65029 0.26346 9.39062 0.583505 9.39062H21.4165C21.7383 9.39062 22 9.65205 22 9.96962C22.0018 10.2889 21.7383 10.5486 21.4183 10.5486Z" fill="#F7C12B"/>
</svg>
