<svg width="21" height="20" viewBox="0 0 21 20" fill="none" xmlns="http://www.w3.org/2000/svg">
<path d="M5.85843 4.3166L19.4178 6.43122C19.4178 6.43122 21.4609 6.60744 20.9037 8.72205C20.9037 8.72205 19.0463 13.6562 18.6748 13.8324C18.4797 14.0597 18.2364 14.3029 17.9318 14.5373C16.9696 15.2774 15.9351 15.51 15.3314 15.5946C13.4739 15.6527 11.6165 15.7126 9.75905 15.7708C8.93621 15.7355 7.51526 15.5435 6.6014 14.5373C6.28749 14.1919 6.13333 13.8606 6.04417 13.6562C4.71053 10.6023 4.37247 5.02147 4.37247 5.02147C4.27031 4.55449 4.14586 4.02231 4.00098 3.43551C3.80967 2.66191 3.72422 2.38877 3.44375 2.20198C3.10384 1.97642 2.6822 2.01166 2.51503 2.02576C2.04695 2.06453 1.7219 2.27775 1.58631 2.3782C1.46186 2.38525 0.906483 2.40815 0.471842 2.02576C0.0762065 1.67685 -0.139257 1.06537 0.100353 0.616014C0.287955 0.26534 0.687305 0.136701 0.84333 0.0873597C2.05438 -0.287985 3.56263 0.614252 4.37247 1.49711C4.83683 2.00285 5.12102 2.55618 5.30119 2.90685C5.58724 3.46194 5.75627 3.95535 5.85843 4.3166Z" fill="#F7C12B"/>
<path d="M8.45852 20C9.48435 20 10.316 19.211 10.316 18.2378C10.316 17.2645 9.48435 16.4756 8.45852 16.4756C7.43268 16.4756 6.60107 17.2645 6.60107 18.2378C6.60107 19.211 7.43268 20 8.45852 20Z" fill="#F7C12B"/>
<path d="M14.2176 20C15.2434 20 16.075 19.211 16.075 18.2378C16.075 17.2645 15.2434 16.4756 14.2176 16.4756C13.1917 16.4756 12.3601 17.2645 12.3601 18.2378C12.3601 19.211 13.1917 20 14.2176 20Z" fill="#F7C12B"/>
</svg>
