<svg width="20" height="21" viewBox="0 0 20 21" fill="none" xmlns="http://www.w3.org/2000/svg">
<path d="M9.99954 10.5435C12.7842 10.5435 15.0416 8.18325 15.0416 5.27174C15.0416 2.36024 12.7842 0 9.99954 0C7.21491 0 4.95752 2.36024 4.95752 5.27174C4.95752 8.18325 7.21491 10.5435 9.99954 10.5435Z" fill="#F7C12B"/>
<path d="M20 16.9575C19.1731 17.75 15.6588 20.9376 10.2521 20.9991C4.48403 21.0659 0.752941 17.5268 0 16.7817C0.936135 12.8771 2.35126 11.5821 3.52941 11.1586C5.5042 10.4486 6.53782 12.2902 9.91597 12.3886C13.7092 12.4993 15.1176 10.2571 17.1429 11.1586C18.2168 11.6365 19.4521 12.9931 20 16.9575Z" fill="#F7C12B"/>
</svg>
