<svg width="198" height="151" viewBox="0 0 198 151" fill="none" xmlns="http://www.w3.org/2000/svg">
<g clip-path="url(#clip0_2623_3956)">
<path d="M168.7 144.473C184.882 144.473 198 141.911 198 138.752C198 135.592 184.882 133.031 168.7 133.031C152.518 133.031 139.399 135.592 139.399 138.752C139.399 141.911 152.518 144.473 168.7 144.473Z" fill="#FFF3DD"/>
<path d="M29.3004 142.473C45.4825 142.473 58.6008 139.911 58.6008 136.752C58.6008 133.592 45.4825 131.031 29.3004 131.031C13.1182 131.031 0 133.592 0 136.752C0 139.911 13.1182 142.473 29.3004 142.473Z" fill="#FFF3DD"/>
<path d="M163.581 52.5417C160.089 48.3836 157.781 43.3656 156.899 38.0125L156.095 33.1558C155.27 28.1626 153.205 23.4551 150.089 19.4624C146.973 15.4697 142.906 12.3189 138.256 10.2972L120.373 2.52261C116.3 0.752171 111.888 -0.105391 107.447 0.0103324C103.006 0.126056 98.6446 1.21223 94.6699 3.19237L33.8679 33.4855C27.6997 36.5586 22.7625 41.6341 19.8676 47.878C16.9727 54.1219 16.2923 61.1628 17.9382 67.8436L24.1201 92.9347C25.7744 99.651 29.6805 105.601 35.1901 109.797C40.6997 113.993 47.4816 116.183 54.4101 116.003L82.5247 115.276C83.6391 115.248 84.7543 115.281 85.8652 115.374L137.577 119.729C142.821 120.171 148.089 119.245 152.867 117.042C157.644 114.84 161.766 111.437 164.829 107.167L171.682 97.6146C175.602 92.1485 177.591 85.5373 177.335 78.8204C177.079 72.1036 174.594 65.6621 170.269 60.5087L163.581 52.5417Z" fill="#FFF3DD"/>
<path d="M132.658 30.2039C132.562 28.4068 131.79 26.712 130.496 25.4587C129.201 24.2054 127.48 23.4859 125.677 23.4443L73.0641 22.2421C72.1038 22.2201 71.1488 22.3914 70.2562 22.7458C69.3636 23.1001 68.5517 23.6303 67.8689 24.3046C67.1861 24.9789 66.6464 25.7835 66.282 26.6705C65.9176 27.5575 65.7361 28.5087 65.7481 29.4672L67.0888 136.308C67.115 138.184 67.8803 139.975 69.2191 141.292C70.5579 142.61 72.3626 143.349 74.2431 143.349H131.128C132.099 143.349 133.061 143.152 133.953 142.769C134.845 142.386 135.65 141.826 136.319 141.123C136.987 140.419 137.505 139.588 137.841 138.678C138.177 137.768 138.323 136.8 138.272 135.832L132.658 30.2039Z" fill="#3B689E"/>
<path d="M135.455 78.5579L133.703 45.6149L132.658 25.9405C132.563 24.1432 131.791 22.4481 130.496 21.1949C129.202 19.9417 127.481 19.2229 125.677 19.1825L73.0641 17.9804C72.1037 17.9586 71.1487 18.1301 70.2561 18.4847C69.3634 18.8392 68.5516 19.3695 67.8688 20.044C67.186 20.7184 66.6463 21.5232 66.282 22.4103C65.9176 23.2973 65.7361 24.2485 65.7481 25.2072L65.8789 35.6575L66.137 56.2198L66.5966 92.778L66.8065 109.545L67.0888 132.043C67.1128 133.92 67.8771 135.713 69.2161 137.033C70.5552 138.352 72.3612 139.092 74.2431 139.093H131.128C132.099 139.093 133.061 138.896 133.953 138.513C134.846 138.13 135.651 137.57 136.319 136.867C136.988 136.163 137.506 135.331 137.841 134.422C138.177 133.512 138.324 132.544 138.272 131.576L135.455 78.5579Z" fill="#6087BF"/>
<path d="M129.67 43.8815L128.865 28.5744C128.804 27.3641 128.398 26.1964 127.695 25.2083C127.133 24.4135 126.393 23.761 125.534 23.3029C124.674 22.8448 123.719 22.594 122.745 22.5704L122.048 22.5532L98.1652 22.0036L76.6043 21.5056C73.0521 21.4232 70.1436 24.3342 70.1866 27.9235L70.6186 62.7162L71.054 97.9227L71.1882 108.723L71.3603 122.816C71.3788 124.491 72.0592 126.091 73.2535 127.268C74.4183 128.426 75.9959 129.077 77.6404 129.076H127.529C131.125 129.076 133.983 126.03 133.792 122.399L129.67 43.8815Z" fill="#FFF8EE"/>
<path d="M70.6187 62.7144L71.0541 97.9193L122.048 22.5515L98.1636 22.002L70.6187 62.7144Z" fill="white"/>
<path d="M127.695 25.207L71.1882 108.72L71.3603 122.813C71.3788 124.488 72.0592 126.088 73.2535 127.265L129.674 43.8802L128.868 28.5731C128.806 27.3624 128.399 26.1947 127.695 25.207Z" fill="white"/>
<path d="M104.043 130.797C103.839 130.797 103.635 130.811 103.433 130.84C101.647 131.094 100.284 132.452 100.284 134.089C100.284 135.726 101.647 137.086 103.433 137.34C103.635 137.368 103.839 137.383 104.043 137.383C106.116 137.383 107.798 135.91 107.798 134.089C107.798 132.269 106.116 130.797 104.043 130.797Z" fill="white"/>
<path d="M103.433 137.338C105.172 137.338 106.581 135.884 106.581 134.089C106.581 132.295 105.172 130.84 103.433 130.84C101.695 130.84 100.286 132.295 100.286 134.089C100.286 135.884 101.695 137.338 103.433 137.338Z" fill="#3B689E"/>
<path d="M89.6549 140.828H82.1805C82.0294 140.828 81.9069 140.95 81.9069 141.101V141.872C81.9069 142.023 82.0294 142.145 82.1805 142.145H89.6549C89.806 142.145 89.9285 142.023 89.9285 141.872V141.101C89.9285 140.95 89.806 140.828 89.6549 140.828Z" fill="white"/>
<path d="M112.601 140.828H97.3082C97.1571 140.828 97.0345 140.95 97.0345 141.101V141.872C97.0345 142.023 97.1571 142.145 97.3082 142.145H112.601C112.752 142.145 112.875 142.023 112.875 141.872V141.101C112.875 140.95 112.752 140.828 112.601 140.828Z" fill="white"/>
<path d="M123.872 140.828H122.084C121.933 140.828 121.81 140.95 121.81 141.101V141.872C121.81 142.023 121.933 142.145 122.084 142.145H123.872C124.023 142.145 124.146 142.023 124.146 141.872V141.101C124.146 140.95 124.023 140.828 123.872 140.828Z" fill="white"/>
<path d="M127.325 140.828H125.536C125.385 140.828 125.263 140.95 125.263 141.101V141.872C125.263 142.023 125.385 142.145 125.536 142.145H127.325C127.476 142.145 127.598 142.023 127.598 141.872V141.101C127.598 140.95 127.476 140.828 127.325 140.828Z" fill="white"/>
<g opacity="0.2">
<path opacity="0.2" d="M65.8789 35.666L66.1371 56.2283H90.8423L88.5706 35.666H65.8789Z" fill="black"/>
<path opacity="0.2" d="M66.5948 92.7871L66.8065 109.554L100.781 109.657L98.9535 92.7871H66.5948Z" fill="black"/>
<path opacity="0.2" d="M100.206 65.652L93.7405 57.9375L91.2106 65.652L81.6744 66.6327L90.0868 73.9264L90.2262 82.4808L97.957 78.414L107.232 82.4808L104.421 73.5057L110.183 67.4742L100.206 65.652Z" fill="black"/>
<path opacity="0.2" d="M103.678 45.623L105.201 62.3419H129.462L128.376 65.6496L118.84 66.6302L127.252 73.924L127.392 82.48L135.123 78.4132L135.455 78.5592L133.703 45.623H103.678Z" fill="black"/>
</g>
<path d="M29.3004 32.9258L31.1746 53.4864H92.0746L89.8046 32.9258H29.3004Z" fill="#9FB7ED"/>
<path d="M74.9194 37.9766C72.5014 40.381 72.5341 44.3946 74.8678 47.2678C75.0484 47.493 75.2415 47.708 75.4461 47.9118C78.3426 50.7987 82.7983 51.034 85.4022 48.4355C85.6763 48.1636 85.9224 47.865 86.137 47.5442C87.9252 44.9046 87.4605 41.0834 84.8738 38.5022C81.979 35.6135 77.5216 35.3782 74.9194 37.9766Z" fill="#839CE2"/>
<path d="M82.461 43.4986C82.5979 43.0448 82.6061 42.5621 82.4846 42.104C82.363 41.6458 82.1166 41.2303 81.7726 40.9036C80.7795 39.9127 79.2513 39.8302 78.3581 40.7233C77.6043 41.4738 77.5474 42.6726 78.1377 43.6257C76.3926 44.28 75.1191 45.6419 74.8678 47.2683C75.0484 47.4935 75.2416 47.7085 75.4461 47.9123C78.3426 50.7993 82.7983 51.0345 85.4023 48.4361C85.6763 48.1641 85.9224 47.8655 86.137 47.5448C85.977 45.6831 84.4935 44.122 82.461 43.4986Z" fill="white"/>
<path d="M69.6652 45.1719H35.0159C34.9113 45.1719 34.8265 45.2565 34.8265 45.3608V46.101C34.8265 46.2053 34.9113 46.2899 35.0159 46.2899H69.6652C69.7697 46.2899 69.8545 46.2053 69.8545 46.101V45.3608C69.8545 45.2565 69.7697 45.1719 69.6652 45.1719Z" fill="#F7D79A"/>
<path d="M69.6651 48.0703H38.3873C38.2828 48.0703 38.198 48.1549 38.198 48.2592V48.9994C38.198 49.1038 38.2828 49.1883 38.3873 49.1883H69.6651C69.7697 49.1883 69.8545 49.1038 69.8545 48.9994V48.2592C69.8545 48.1549 69.7697 48.0703 69.6651 48.0703Z" fill="#F7D79A"/>
<path d="M38.4493 39.211L37.1843 37.7031L36.6904 39.211L34.8265 39.4033L36.4701 40.8288L36.4976 42.5015L38.0087 41.7064L39.8227 42.5015L39.2737 40.7463L40.3992 39.5682L38.4493 39.211Z" fill="white"/>
<path d="M46.2783 39.211L45.0133 37.7031L44.5194 39.211L42.6555 39.4033L44.2991 40.8288L44.3266 42.5015L45.8377 41.7064L47.6516 42.5015L47.1026 40.7463L48.2282 39.5682L46.2783 39.211Z" fill="white"/>
<path d="M54.1054 39.211L52.8422 37.7031L52.3482 39.211L50.4844 39.4033L52.128 40.8288L52.1555 42.5015L53.6665 41.7064L55.4805 42.5015L54.9298 40.7463L56.057 39.5682L54.1054 39.211Z" fill="white"/>
<path d="M61.9344 39.211L60.6712 37.7031L60.1772 39.211L58.3134 39.4033L59.9569 40.8288L59.9845 42.5015L61.4955 41.7064L63.3095 42.5015L62.7588 40.7463L63.886 39.5682L61.9344 39.211Z" fill="white"/>
<path d="M69.7634 39.211L68.5001 37.7031L68.0062 39.211L66.1423 39.4033L67.7859 40.8288L67.8134 42.5015L69.3245 41.7064L71.1385 42.5015L70.5877 40.7463L71.715 39.5682L69.7634 39.211Z" fill="white"/>
<path d="M104.912 42.8828L106.435 59.6016H156.086L154.107 42.8828H104.912Z" fill="#9FB7ED"/>
<path d="M142.005 46.9889C140.038 48.9519 140.064 52.2081 141.962 54.5455C142.109 54.7257 142.267 54.8977 142.433 55.0607C144.788 57.4084 148.411 57.6008 150.522 55.4884C150.745 55.2671 150.945 55.0243 151.119 54.7636C152.574 52.6168 152.197 49.5084 150.087 47.4097C147.744 45.0689 144.12 44.8766 142.005 46.9889Z" fill="#839CE2"/>
<path d="M148.135 51.4799C148.247 51.1112 148.254 50.7188 148.156 50.3463C148.057 49.9738 147.858 49.6357 147.579 49.3692C146.772 48.5638 145.53 48.4968 144.802 49.2216C144.191 49.8329 144.142 50.8067 144.629 51.583C143.21 52.1136 142.174 53.2231 141.965 54.5455C142.113 54.7257 142.27 54.8977 142.437 55.0607C144.791 57.4084 148.414 57.6008 150.526 55.4884C150.748 55.2671 150.948 55.0243 151.123 54.7636C150.996 53.2557 149.789 51.9865 148.135 51.4799Z" fill="white"/>
<path d="M137.697 52.8398H109.595C109.49 52.8398 109.405 52.9244 109.405 53.0288V53.5594C109.405 53.6638 109.49 53.7484 109.595 53.7484H137.697C137.802 53.7484 137.886 53.6638 137.886 53.5594V53.0288C137.886 52.9244 137.802 52.8398 137.697 52.8398Z" fill="#F7D79A"/>
<path d="M137.697 55.1973H112.336C112.232 55.1973 112.147 55.2818 112.147 55.3862V55.9168C112.147 56.0212 112.232 56.1058 112.336 56.1058H137.697C137.802 56.1058 137.886 56.0212 137.886 55.9168V55.3862C137.886 55.2818 137.802 55.1973 137.697 55.1973Z" fill="#F7D79A"/>
<path d="M112.35 47.994L111.322 46.7695L110.92 47.994L109.405 48.1503L110.741 49.3096L110.763 50.6697L111.992 50.024L113.467 50.6697L113.019 49.2426L113.935 48.2843L112.35 47.994Z" fill="white"/>
<path d="M118.716 47.994L117.689 46.7695L117.286 47.994L115.77 48.1503L117.107 49.3096L117.129 50.6697L118.358 50.024L119.833 50.6697L119.386 49.2426L120.301 48.2843L118.716 47.994Z" fill="white"/>
<path d="M125.08 47.994L124.053 46.7695L123.652 47.994L122.136 48.1503L123.473 49.3096L123.495 50.6697L124.724 50.024L126.197 50.6697L125.752 49.2426L126.667 48.2843L125.08 47.994Z" fill="white"/>
<path d="M131.446 47.994L130.419 46.7695L130.016 47.994L128.502 48.1503L129.837 49.3096L129.86 50.6697L131.088 50.024L132.563 50.6697L132.116 49.2426L133.033 48.2843L131.446 47.994Z" fill="white"/>
<path d="M137.812 47.994L136.785 46.7695L136.382 47.994L134.866 48.1503L136.203 49.3096L136.226 50.6697L137.455 50.024L138.929 50.6697L138.482 49.2426L139.398 48.2843L137.812 47.994Z" fill="white"/>
<path d="M50.9922 90.0469L52.2107 106.766L102.015 106.917L100.188 90.0469H50.9922Z" fill="#9FB7ED"/>
<path d="M88.0853 94.1522C86.1182 96.1151 86.144 99.3713 88.0423 101.709C88.1891 101.892 88.346 102.067 88.5121 102.232C90.8682 104.58 94.4909 104.773 96.6009 102.66C96.8239 102.439 97.024 102.195 97.198 101.934C98.6523 99.7887 98.2754 96.6802 96.1654 94.5815C93.8249 92.2321 90.2004 92.0398 88.0853 94.1522Z" fill="#839CE2"/>
<path d="M94.2172 98.6422C94.3285 98.2737 94.3354 97.8817 94.2373 97.5096C94.1392 97.1374 93.9399 96.7995 93.6614 96.5333C92.8542 95.7278 91.6116 95.6609 90.8836 96.3856C90.2726 96.997 90.2245 97.9708 90.7115 98.747C89.2917 99.2777 88.2556 100.385 88.0474 101.708C88.1942 101.891 88.3511 102.066 88.5172 102.232C90.8733 104.579 94.496 104.772 96.606 102.659C96.829 102.438 97.0291 102.194 97.2032 101.933C97.0759 100.42 95.8694 99.1506 94.2172 98.6422Z" fill="white"/>
<path d="M83.7759 100.004H55.6733C55.5688 100.004 55.484 100.088 55.484 100.193V100.723C55.484 100.828 55.5688 100.912 55.6733 100.912H83.7759C83.8804 100.912 83.9652 100.828 83.9652 100.723V100.193C83.9652 100.088 83.8804 100.004 83.7759 100.004Z" fill="#F7D79A"/>
<path d="M83.7759 102.359H58.4149C58.3103 102.359 58.2256 102.444 58.2256 102.548V103.079C58.2256 103.183 58.3103 103.268 58.4149 103.268H83.7759C83.8804 103.268 83.9652 103.183 83.9652 103.079V102.548C83.9652 102.444 83.8804 102.359 83.7759 102.359Z" fill="#F7D79A"/>
<path d="M58.4304 95.1579L57.4029 93.9316L57.0002 95.1579L55.484 95.3141L56.8212 96.4734L56.8436 97.8335L58.0724 97.1861L59.5473 97.8335L59.0999 96.4064L60.0155 95.4481L58.4304 95.1579Z" fill="white"/>
<path d="M64.7965 95.1579L63.7673 93.9316L63.3663 95.1579L61.8501 95.3141L63.1873 96.4734L63.2097 97.8335L64.4385 97.1861L65.9134 97.8335L65.466 96.4064L66.3815 95.4481L64.7965 95.1579Z" fill="white"/>
<path d="M71.1607 95.1579L70.1333 93.9316L69.7323 95.1579L68.2161 95.3141L69.5533 96.4734L69.5757 97.8335L70.8045 97.1861L72.2777 97.8335L71.8319 96.4064L72.7475 95.4481L71.1607 95.1579Z" fill="white"/>
<path d="M77.5268 95.1579L76.4994 93.9316L76.0967 95.1579L74.5822 95.3141L75.9177 96.4734L75.94 97.8335L77.1689 97.1861L78.6438 97.8335L78.1963 96.4064L79.1136 95.4481L77.5268 95.1579Z" fill="white"/>
<path d="M83.8929 95.1579L82.8655 93.9316L82.4628 95.1579L80.9465 95.3141L82.2838 96.4734L82.3061 97.8335L83.535 97.1861L85.0099 97.8335L84.5624 96.4064L85.478 95.4481L83.8929 95.1579Z" fill="white"/>
<path d="M27.106 62.9118L20.6419 55.1973L18.112 62.9118L8.57581 63.8907L16.9882 71.1862L17.1276 79.7405L24.8567 75.6737L34.133 79.7405L31.3225 70.7637L37.0845 64.7339L27.106 62.9118Z" fill="#FEC337"/>
<path d="M18.112 62.9118L8.57581 63.8907L22.831 65.9001L20.6419 55.1973L18.112 62.9118Z" fill="#FFD278"/>
<path d="M17.1276 79.7394L24.8567 75.6726L34.133 79.7394L24.2836 71.4805L17.1276 79.7394Z" fill="#FFD278"/>
<path d="M27.3298 68.3632L34.133 79.741L31.3226 70.7641L37.0846 64.7344L27.3298 68.3632Z" fill="#FFB024"/>
<path d="M64.2733 62.9118L57.8074 55.1973L55.2775 62.9118L45.7413 63.8907L54.1537 71.1862L54.2948 79.7405L62.0239 75.6737L71.2985 79.7405L68.4898 70.7637L74.2518 64.7339L64.2733 62.9118Z" fill="#FEC337"/>
<path d="M55.2775 62.9118L45.7413 63.8907L59.9965 65.9001L57.8074 55.1973L55.2775 62.9118Z" fill="#FFD278"/>
<path d="M54.2948 79.7394L62.0239 75.6726L71.2985 79.7394L61.4491 71.4805L54.2948 79.7394Z" fill="#FFD278"/>
<path d="M64.4952 68.3632L71.2984 79.741L68.4897 70.7641L74.2517 64.7344L64.4952 68.3632Z" fill="#FFB024"/>
<path d="M101.439 62.9118L94.9745 55.1973L92.4446 62.9118L82.9084 63.8907L91.3208 71.1862L91.4602 79.7405L99.1893 75.6737L108.466 79.7405L105.655 70.7637L111.417 64.7339L101.439 62.9118Z" fill="#FEC337"/>
<path d="M92.4446 62.9118L82.9084 63.8907L97.1619 65.9001L94.9745 55.1973L92.4446 62.9118Z" fill="#FFD278"/>
<path d="M91.4602 79.7394L99.1893 75.6726L108.466 79.7394L98.6162 71.4805L91.4602 79.7394Z" fill="#FFD278"/>
<path d="M101.662 68.3632L108.466 79.741L105.655 70.7641L111.417 64.7344L101.662 68.3632Z" fill="#FFB024"/>
<path d="M138.606 62.9118L132.14 55.1973L129.61 62.9118L120.074 63.8907L128.486 71.1862L128.626 79.7405L136.356 75.6737L145.631 79.7405L142.822 70.7637L148.583 64.7339L138.606 62.9118Z" fill="#FEC337"/>
<path d="M129.61 62.9118L120.074 63.8907L134.329 65.9001L132.14 55.1973L129.61 62.9118Z" fill="#FFD278"/>
<path d="M128.626 79.7394L136.356 75.6726L145.631 79.7394L135.782 71.4805L128.626 79.7394Z" fill="#FFD278"/>
<path d="M138.828 68.3632L145.631 79.741L142.822 70.7641L148.583 64.7344L138.828 68.3632Z" fill="#FFB024"/>
<path d="M175.771 62.9118L169.307 55.1973L166.777 62.9118L157.241 63.8907L165.652 71.1862L165.793 79.7405L173.522 75.6737L182.798 79.7405L179.988 70.7637L185.75 64.7339L175.771 62.9118Z" fill="#FEC337"/>
<path d="M166.777 62.9118L157.241 63.8907L171.495 65.9001L169.307 55.1973L166.777 62.9118Z" fill="#FFD278"/>
<path d="M165.793 79.7394L173.522 75.6726L182.798 79.7394L172.949 71.4805L165.793 79.7394Z" fill="#FFD278"/>
<path d="M175.995 68.3632L182.798 79.741L179.988 70.7641L185.75 64.7344L175.995 68.3632Z" fill="#FFB024"/>
<path d="M42.344 102.922L33.0608 114.239C32.9597 114.357 32.9029 114.506 32.9001 114.661C32.8974 114.816 32.949 114.967 33.0459 115.088C33.1429 115.209 33.2791 115.292 33.4311 115.323C33.583 115.355 33.7412 115.332 33.8783 115.26L40.5989 112.818L50.006 119.811L56.2016 111.189L46.3437 105.309L42.344 102.922Z" fill="#FEB8C0"/>
<path d="M32.6822 114.208C32.4172 114.513 32.3897 115.116 32.739 115.41C32.8577 115.519 33.0054 115.592 33.1646 115.619C33.3237 115.646 33.4874 115.626 33.6357 115.563L41.0997 113.189C41.8053 109.715 46.4555 105.391 46.4555 105.391L42.6366 102.117L32.6822 114.208Z" fill="#B11E28"/>
<path d="M39.7762 113.74C39.6507 113.119 39.4526 112.516 39.1859 111.941L39.7762 113.74Z" fill="white"/>
<path d="M39.0724 111.993C39.3336 112.558 39.5283 113.152 39.6524 113.762L39.8984 113.712C39.7714 113.082 39.5704 112.47 39.2995 111.887L39.0724 111.993Z" fill="white"/>
<path d="M38.8159 114.047C38.7015 113.526 38.5283 113.021 38.2996 112.539L38.8159 114.047Z" fill="white"/>
<path d="M38.1808 112.593C38.4077 113.068 38.5809 113.566 38.6971 114.079L38.9415 114.022C38.8241 113.494 38.6475 112.981 38.4149 112.492L38.1808 112.593Z" fill="white"/>
<path d="M38.05 114.354C37.9233 113.885 37.7622 113.426 37.5681 112.98L38.05 114.354Z" fill="white"/>
<path d="M37.6852 112.938L37.4512 113.028C37.4787 113.101 37.5097 113.176 37.5407 113.253C37.698 113.621 37.8269 114 37.9261 114.387L38.174 114.334C38.0712 113.933 37.9377 113.541 37.7747 113.161C37.7437 113.077 37.7145 113.001 37.6852 112.938Z" fill="white"/>
<path d="M60.8278 92.082C58.6146 97.7099 69.6996 112.718 70.672 116.969C70.8837 117.901 69.9303 117.917 68.3091 117.374C68.1576 117.324 67.9993 117.268 67.8358 117.202C64.4282 115.942 58.6456 112.668 54.2484 110.049L53.4567 109.579C50.4501 107.774 48.2644 106.388 48.2644 106.388L43.6968 116.373C43.6968 116.373 44.3232 116.948 45.4298 117.869C46.4624 118.727 47.8943 119.868 49.6274 121.123C52.9731 123.553 57.4185 126.389 62.1186 128.297C64.274 129.198 66.5261 129.848 68.8306 130.236C72.6323 130.83 76.3428 130.43 79.5301 128.347C90.092 121.46 76.6612 92.6591 76.6612 92.6591L60.8278 92.082Z" fill="#190066"/>
<path d="M35.8541 133.637L31.6548 135.951L36.9556 150.069C37.0101 150.218 37.1143 150.343 37.2506 150.424C37.387 150.505 37.547 150.536 37.7038 150.512C37.8606 150.489 38.0045 150.412 38.1111 150.295C38.2178 150.178 38.2808 150.028 38.2894 149.87L39.5887 142.628L50.7082 137.883L46.2129 127.922L35.8541 133.637Z" fill="#FEB8C0"/>
<path d="M35.9934 133.57L31.0868 135.277L36.7283 150.39C36.8659 150.785 37.3892 151.122 37.8384 150.968C37.9975 150.918 38.139 150.824 38.2456 150.697C38.3522 150.569 38.4194 150.413 38.4389 150.248L40.1858 142.381C37.4459 139.947 35.9934 133.57 35.9934 133.57Z" fill="#B11E28"/>
<path d="M39.9827 143.835C39.3641 143.626 38.7229 143.49 38.0724 143.43L39.9827 143.835Z" fill="white"/>
<path d="M38.0604 143.55C38.7015 143.61 39.3334 143.745 39.9432 143.952L40.024 143.713C39.3961 143.5 38.745 143.361 38.0845 143.301L38.0604 143.55Z" fill="white"/>
<path d="M39.7643 144.847C39.2392 144.681 38.6971 144.573 38.1482 144.527L39.7643 144.847Z" fill="white"/>
<path d="M38.1344 144.655C38.6757 144.701 39.2102 144.806 39.7281 144.97L39.8021 144.729C39.2693 144.56 38.7191 144.452 38.162 144.406L38.1344 144.655Z" fill="white"/>
<path d="M39.6385 145.687C39.1527 145.557 38.658 145.462 38.1584 145.402L39.6385 145.687Z" fill="white"/>
<path d="M38.1774 145.277L38.1378 145.526L38.3856 145.564C38.7959 145.613 39.2017 145.694 39.599 145.806L39.6764 145.568C39.2662 145.45 38.8473 145.366 38.4235 145.315L38.1774 145.277Z" fill="white"/>
<path d="M54.312 91.4512C54.7938 102.839 55.5546 111.323 52.6787 117.361C49.1386 124.796 38.8004 131.413 38.8004 131.413L45.1235 141.881C45.1235 141.881 54.2294 138.363 62.85 127.042C72.6977 114.112 68.5379 93.3369 68.5379 93.3369L54.312 91.4512Z" fill="#190066"/>
<path d="M39.21 134.72C39.0811 134.761 38.9566 134.815 38.8383 134.881C38.8248 134.89 38.813 134.902 38.804 134.915C38.7949 134.929 38.7886 134.944 38.7854 134.96C38.7822 134.976 38.7821 134.992 38.7853 135.008C38.7885 135.024 38.7948 135.039 38.8039 135.053C38.8151 135.071 38.8306 135.085 38.849 135.095C38.8674 135.105 38.8879 135.11 38.9088 135.11C38.9333 135.11 38.9573 135.103 38.9777 135.089C39.0821 135.037 39.1895 134.992 39.2995 134.953C39.3309 134.942 39.3564 134.918 39.3703 134.887C39.3841 134.856 39.3853 134.822 39.3735 134.79C39.3675 134.775 39.3584 134.761 39.3469 134.749C39.3354 134.737 39.3217 134.728 39.3065 134.721C39.2913 134.715 39.275 134.711 39.2584 134.711C39.2419 134.711 39.2254 134.714 39.21 134.72Z" fill="white"/>
<path d="M48.3745 129.737C48.18 129.89 47.9787 130.041 47.7791 130.189C47.7575 130.205 47.7415 130.227 47.7334 130.252C47.7253 130.277 47.7254 130.305 47.7338 130.33C47.7423 130.355 47.7586 130.377 47.7803 130.393C47.8021 130.408 47.8281 130.416 47.8548 130.416C47.8818 130.415 47.9081 130.407 47.9305 130.392C48.1301 130.242 48.3333 130.089 48.5295 129.937C48.5559 129.916 48.5732 129.886 48.5774 129.853C48.5816 129.82 48.5724 129.786 48.5518 129.76C48.5313 129.733 48.501 129.716 48.4678 129.712C48.4346 129.708 48.401 129.717 48.3745 129.737Z" fill="white"/>
<path d="M44.6484 132.228C44.4333 132.35 44.213 132.473 43.9945 132.59C43.9649 132.606 43.9428 132.633 43.9331 132.665C43.9234 132.697 43.9269 132.732 43.9428 132.762C43.9541 132.781 43.9705 132.798 43.9901 132.809C44.0097 132.821 44.032 132.827 44.0547 132.827C44.0758 132.827 44.0964 132.822 44.1149 132.812C44.3352 132.693 44.5572 132.569 44.7741 132.446C44.803 132.429 44.8242 132.402 44.833 132.37C44.8417 132.337 44.8372 132.303 44.8205 132.274C44.8039 132.245 44.7764 132.224 44.7441 132.215C44.7119 132.207 44.6774 132.211 44.6484 132.228Z" fill="white"/>
<path d="M45.9307 131.457C45.7207 131.589 45.5073 131.721 45.2939 131.85C45.2796 131.858 45.2672 131.869 45.2572 131.882C45.2473 131.896 45.2402 131.911 45.2361 131.927C45.2321 131.943 45.2313 131.959 45.2339 131.976C45.2364 131.992 45.2422 132.007 45.2509 132.022C45.2621 132.04 45.278 132.056 45.297 132.067C45.316 132.077 45.3374 132.083 45.3593 132.083C45.3823 132.083 45.405 132.076 45.4247 132.064C45.6381 131.936 45.8549 131.802 46.0649 131.669C46.0921 131.651 46.1114 131.623 46.1188 131.591C46.1261 131.56 46.121 131.526 46.1045 131.498C46.0958 131.484 46.0845 131.471 46.071 131.461C46.0576 131.452 46.0424 131.445 46.0262 131.441C46.0101 131.437 45.9933 131.436 45.9769 131.439C45.9605 131.442 45.9448 131.448 45.9307 131.457Z" fill="white"/>
<path d="M50.6377 127.788C50.4656 127.96 50.2746 128.131 50.0904 128.303C50.0673 128.325 50.0535 128.355 50.0519 128.387C50.0503 128.419 50.061 128.451 50.0817 128.475C50.0938 128.488 50.1085 128.498 50.1248 128.505C50.1411 128.512 50.1587 128.516 50.1765 128.516C50.2077 128.516 50.2378 128.505 50.2607 128.483C50.4466 128.312 50.6325 128.14 50.8115 127.968C50.8334 127.945 50.8456 127.914 50.8456 127.882C50.8456 127.851 50.8334 127.82 50.8115 127.797C50.789 127.773 50.7586 127.76 50.7263 127.758C50.694 127.756 50.6624 127.767 50.6377 127.788Z" fill="white"/>
<path d="M52.6873 125.616C52.5255 125.805 52.3603 125.994 52.1968 126.178C52.1764 126.202 52.166 126.234 52.1676 126.265C52.1692 126.297 52.1827 126.327 52.2055 126.35C52.229 126.37 52.2589 126.38 52.2897 126.38C52.3075 126.38 52.3251 126.377 52.3414 126.37C52.3577 126.363 52.3724 126.352 52.3844 126.339C52.5565 126.154 52.7165 125.961 52.8783 125.771C52.8989 125.746 52.909 125.714 52.9064 125.682C52.9038 125.65 52.8888 125.62 52.8646 125.599C52.8519 125.589 52.8372 125.581 52.8213 125.576C52.8055 125.571 52.7888 125.569 52.7723 125.571C52.7559 125.572 52.7399 125.577 52.7253 125.585C52.7107 125.593 52.6978 125.603 52.6873 125.616Z" fill="white"/>
<path d="M53.7991 124.429C53.7727 124.411 53.7403 124.403 53.7083 124.407C53.6764 124.412 53.6473 124.428 53.627 124.453C53.4773 124.651 53.3224 124.85 53.1675 125.042C53.1525 125.061 53.1431 125.083 53.1403 125.107C53.1375 125.13 53.1415 125.154 53.1518 125.176C53.1621 125.197 53.1782 125.215 53.1983 125.228C53.2185 125.24 53.2418 125.247 53.2656 125.247C53.2845 125.247 53.3033 125.242 53.3203 125.234C53.3373 125.226 53.3521 125.214 53.3637 125.199C53.5203 125.005 53.6769 124.805 53.8283 124.606C53.8479 124.579 53.8558 124.545 53.8503 124.512C53.8449 124.479 53.8264 124.449 53.7991 124.429Z" fill="white"/>
<path d="M51.6909 126.728C51.5188 126.908 51.3467 127.089 51.1746 127.264C51.153 127.287 51.1411 127.318 51.1411 127.35C51.1411 127.382 51.153 127.412 51.1746 127.436C51.1986 127.459 51.2307 127.472 51.2641 127.472C51.2806 127.472 51.2971 127.469 51.3125 127.463C51.3278 127.457 51.3418 127.447 51.3536 127.436C51.5257 127.264 51.7064 127.075 51.8785 126.895C51.9 126.871 51.912 126.841 51.912 126.809C51.912 126.777 51.9 126.746 51.8785 126.723C51.8664 126.71 51.8516 126.7 51.8352 126.693C51.8189 126.686 51.8013 126.683 51.7836 126.684C51.7658 126.684 51.7484 126.688 51.7325 126.696C51.7165 126.704 51.7023 126.715 51.6909 126.728Z" fill="white"/>
<path d="M43.325 132.938C43.1047 133.052 42.8792 133.163 42.6555 133.272C42.6401 133.279 42.6263 133.289 42.6149 133.302C42.6035 133.314 42.5949 133.329 42.5894 133.345C42.584 133.361 42.5818 133.378 42.5831 133.395C42.5844 133.412 42.5891 133.428 42.597 133.443C42.6043 133.459 42.6147 133.472 42.6273 133.483C42.64 133.495 42.6548 133.503 42.6708 133.509C42.6868 133.514 42.7037 133.516 42.7206 133.515C42.7375 133.514 42.754 133.509 42.7691 133.502C42.9946 133.394 43.2217 133.28 43.4437 133.158C43.4588 133.151 43.4723 133.14 43.4833 133.128C43.4943 133.115 43.5026 133.1 43.5078 133.084C43.5129 133.068 43.5148 133.051 43.5132 133.034C43.5117 133.018 43.5067 133.001 43.4988 132.987C43.4905 132.972 43.4795 132.959 43.4663 132.949C43.4531 132.939 43.438 132.931 43.4219 132.926C43.4057 132.922 43.3888 132.921 43.3722 132.923C43.3556 132.925 43.3396 132.93 43.325 132.938Z" fill="white"/>
<path d="M49.531 128.789C49.3434 128.95 49.1507 129.111 48.9597 129.269C48.935 129.29 48.9193 129.32 48.9158 129.352C48.9123 129.384 48.9212 129.416 48.9407 129.441C48.9619 129.465 48.9915 129.48 49.0234 129.483C49.0553 129.487 49.0872 129.478 49.1128 129.458C49.3055 129.3 49.5 129.137 49.6893 128.974C49.7126 128.952 49.7267 128.922 49.7289 128.891C49.7311 128.859 49.7213 128.827 49.7013 128.802C49.6799 128.779 49.6505 128.765 49.6189 128.762C49.5873 128.76 49.5559 128.769 49.531 128.789Z" fill="white"/>
<path d="M60.2288 94.439C60.2461 94.6829 60.2615 94.9319 60.277 95.1861C60.2792 95.218 60.2933 95.2479 60.3166 95.2698C60.3399 95.2918 60.3706 95.3042 60.4026 95.3046H60.4112C60.4444 95.3019 60.4752 95.2864 60.4971 95.2614C60.519 95.2363 60.5302 95.2037 60.5283 95.1706C60.5128 94.9164 60.4973 94.6657 60.4801 94.4218C60.4775 94.3884 60.4616 94.3574 60.4362 94.3355C60.4107 94.3137 60.3777 94.3026 60.3441 94.305C60.3111 94.3076 60.2804 94.3233 60.2588 94.3484C60.2372 94.3734 60.2265 94.406 60.2288 94.439Z" fill="white"/>
<path d="M60.3201 95.9352C60.3322 96.1808 60.3425 96.4298 60.3546 96.6822C60.3559 96.7146 60.3697 96.7451 60.3932 96.7675C60.4166 96.7899 60.4478 96.8024 60.4802 96.8024C60.4967 96.8018 60.5129 96.7978 60.5279 96.7909C60.5429 96.784 60.5563 96.7742 60.5675 96.7621C60.5787 96.75 60.5874 96.7358 60.5931 96.7203C60.5988 96.7048 60.6013 96.6884 60.6006 96.6719C60.5903 96.4178 60.5783 96.1687 60.5663 95.9214C60.5644 95.8882 60.5494 95.857 60.5246 95.8348C60.4997 95.8126 60.4671 95.8011 60.4337 95.8029C60.4004 95.8047 60.3692 95.8197 60.3469 95.8445C60.3247 95.8693 60.3132 95.9019 60.315 95.9352H60.3201Z" fill="white"/>
<path d="M60.5025 97.2988C60.486 97.2993 60.4697 97.3029 60.4547 97.3097C60.4396 97.3164 60.426 97.326 60.4147 97.338C60.4033 97.35 60.3944 97.364 60.3885 97.3794C60.3826 97.3948 60.3798 97.4112 60.3803 97.4276C60.3803 97.6749 60.394 97.9239 60.3992 98.1764C60.4001 98.2095 60.4139 98.241 60.4377 98.2641C60.4615 98.2872 60.4934 98.3001 60.5266 98.3001C60.5432 98.3001 60.5596 98.2968 60.5748 98.2904C60.5901 98.2839 60.6039 98.2745 60.6154 98.2627C60.627 98.2508 60.636 98.2368 60.6421 98.2214C60.6481 98.206 60.6509 98.1895 60.6505 98.173C60.6505 97.9188 60.6384 97.6698 60.6316 97.4225C60.6307 97.3891 60.6166 97.3574 60.5924 97.3342C60.5682 97.3111 60.536 97.2984 60.5025 97.2988Z" fill="white"/>
<path d="M60.1067 92.9485C60.129 93.1907 60.1515 93.4398 60.1721 93.6939C60.1747 93.7254 60.1891 93.7546 60.2124 93.776C60.2357 93.7973 60.2661 93.8091 60.2978 93.809H60.3081C60.3413 93.8059 60.3719 93.79 60.3935 93.7646C60.415 93.7393 60.4258 93.7065 60.4234 93.6733C60.4027 93.4174 60.3804 93.1684 60.358 92.9246C60.3567 92.9081 60.3521 92.8921 60.3446 92.8775C60.337 92.8629 60.3266 92.8498 60.3139 92.8393C60.3012 92.8287 60.2866 92.8208 60.2708 92.816C60.255 92.8111 60.2385 92.8095 60.222 92.8112C60.1887 92.8147 60.158 92.8309 60.1365 92.8565C60.115 92.8822 60.1042 92.9152 60.1067 92.9485Z" fill="white"/>
<path d="M41.9844 133.589C41.7606 133.692 41.53 133.793 41.2959 133.893C41.2694 133.904 41.2477 133.924 41.2343 133.95C41.221 133.976 41.217 134.005 41.2228 134.033C41.2287 134.061 41.2441 134.087 41.2665 134.105C41.2889 134.123 41.317 134.133 41.3459 134.133C41.3625 134.133 41.3788 134.129 41.394 134.123C41.6263 134.025 41.857 133.922 42.0824 133.819C42.1096 133.803 42.13 133.778 42.1396 133.748C42.1491 133.718 42.1472 133.685 42.1341 133.656C42.121 133.628 42.0977 133.605 42.0688 133.593C42.0399 133.58 42.0073 133.579 41.9775 133.589H41.9844Z" fill="white"/>
<path d="M60.0688 91.3192C60.0356 91.3231 60.0052 91.3399 59.9843 91.3659C59.9633 91.3919 59.9536 91.4251 59.957 91.4583C59.9845 91.697 60.0103 91.9461 60.0361 92.2019C60.0395 92.2329 60.0541 92.2615 60.0773 92.2824C60.1005 92.3033 60.1305 92.3151 60.1618 92.3153H60.1738C60.2073 92.3118 60.2381 92.2953 60.2594 92.2692C60.2807 92.2431 60.2908 92.2097 60.2874 92.1762C60.2616 91.9186 60.234 91.6695 60.2082 91.4308C60.2065 91.4143 60.2016 91.3983 60.1936 91.3838C60.1856 91.3692 60.1748 91.3563 60.1618 91.3459C60.1489 91.3355 60.134 91.3279 60.1181 91.3233C60.1021 91.3187 60.0853 91.3173 60.0688 91.3192Z" fill="white"/>
<path d="M59.6747 89.2374C59.6792 89.267 59.6941 89.294 59.7169 89.3136C59.7396 89.3331 59.7687 89.3438 59.7986 89.3439H59.8175C59.834 89.3416 59.8498 89.3361 59.864 89.3276C59.8783 89.3192 59.8907 89.308 59.9007 89.2948C59.9106 89.2815 59.9177 89.2664 59.9218 89.2504C59.9258 89.2344 59.9267 89.2177 59.9243 89.2014C59.8881 88.9472 59.8502 88.6964 59.8123 88.4577C59.8068 88.4248 59.7886 88.3954 59.7616 88.3758C59.7345 88.3562 59.7009 88.348 59.6678 88.353C59.6514 88.3555 59.6356 88.3612 59.6214 88.3698C59.6072 88.3785 59.5949 88.3898 59.5851 88.4032C59.5753 88.4166 59.5683 88.4319 59.5645 88.448C59.5607 88.4641 59.5601 88.4809 59.5628 88.4972C59.599 88.7325 59.6368 88.9798 59.6747 89.2374Z" fill="white"/>
<path d="M40.6093 134.182C40.3856 134.271 40.1584 134.353 39.9123 134.455C39.8838 134.464 39.8599 134.484 39.8447 134.51C39.8295 134.536 39.8242 134.566 39.8296 134.596C39.835 134.625 39.8508 134.652 39.8742 134.671C39.8976 134.69 39.927 134.699 39.9571 134.698C39.9724 134.698 39.9875 134.695 40.0018 134.69C40.2496 134.595 40.4785 134.504 40.7039 134.413C40.7193 134.407 40.7334 134.398 40.7452 134.387C40.757 134.375 40.7664 134.361 40.7729 134.346C40.7793 134.331 40.7825 134.315 40.7825 134.298C40.7825 134.282 40.7792 134.265 40.7728 134.25C40.7667 134.235 40.7577 134.221 40.7461 134.209C40.7346 134.197 40.7208 134.188 40.7055 134.182C40.6903 134.175 40.6739 134.172 40.6574 134.172C40.6409 134.172 40.6246 134.175 40.6093 134.182Z" fill="white"/>
<path d="M59.8847 89.8331C59.8683 89.8352 59.8525 89.8405 59.8382 89.8487C59.8238 89.8569 59.8113 89.8679 59.8012 89.881C59.7911 89.8941 59.7837 89.9091 59.7794 89.925C59.7752 89.9409 59.7741 89.9575 59.7762 89.9739C59.8072 90.2075 59.8382 90.4547 59.8709 90.7158C59.8743 90.7463 59.8888 90.7745 59.9116 90.7951C59.9345 90.8157 59.964 90.8272 59.9948 90.8274H60.0104C60.0269 90.8255 60.0429 90.8204 60.0574 90.8122C60.0719 90.8041 60.0847 90.7931 60.095 90.78C60.1052 90.7669 60.1127 90.7519 60.1171 90.7359C60.1215 90.7199 60.1226 90.7031 60.1204 90.6866C60.0895 90.4256 60.0568 90.1714 60.0258 89.9429C60.0239 89.9264 60.0187 89.9105 60.0105 89.896C60.0024 89.8815 59.9915 89.8687 59.9783 89.8585C59.9652 89.8483 59.9501 89.8408 59.9341 89.8364C59.918 89.8321 59.9012 89.8309 59.8847 89.8331Z" fill="white"/>
<path d="M47.1731 130.625C46.9701 130.768 46.7618 130.909 46.557 131.048C46.5434 131.057 46.5318 131.068 46.5227 131.082C46.5136 131.095 46.5073 131.11 46.5041 131.126C46.5009 131.142 46.5009 131.159 46.5041 131.175C46.5072 131.191 46.5136 131.206 46.5226 131.219C46.5339 131.237 46.5492 131.251 46.5672 131.261C46.5852 131.27 46.6054 131.276 46.6259 131.276C46.6512 131.276 46.6759 131.269 46.6964 131.254C46.9047 131.116 47.113 130.972 47.3178 130.828C47.3439 130.809 47.3617 130.78 47.3674 130.748C47.3732 130.716 47.3665 130.683 47.3487 130.656C47.3394 130.642 47.3274 130.631 47.3135 130.622C47.2995 130.613 47.2839 130.606 47.2675 130.603C47.2511 130.601 47.2343 130.601 47.2181 130.605C47.2019 130.608 47.1866 130.615 47.1731 130.625Z" fill="white"/>
<path d="M60.2082 106.278C60.1917 106.276 60.175 106.278 60.159 106.282C60.143 106.287 60.1281 106.295 60.1151 106.305C60.1022 106.315 60.0914 106.328 60.0835 106.343C60.0755 106.357 60.0705 106.373 60.0688 106.39C60.0413 106.637 60.0137 106.886 59.9845 107.132C59.9823 107.148 59.9834 107.165 59.9878 107.181C59.9922 107.197 59.9998 107.212 60.01 107.225C60.0203 107.238 60.033 107.249 60.0476 107.257C60.0621 107.265 60.0781 107.271 60.0946 107.273H60.1084C60.1394 107.272 60.1692 107.261 60.1924 107.24C60.2155 107.22 60.2303 107.192 60.234 107.161C60.2633 106.914 60.2926 106.663 60.3201 106.416C60.3235 106.383 60.3136 106.35 60.2926 106.324C60.2716 106.298 60.2413 106.282 60.2082 106.278Z" fill="white"/>
<path d="M60.0309 107.767C59.9977 107.763 59.9643 107.772 59.9376 107.792C59.911 107.812 59.8933 107.842 59.8881 107.875C59.8554 108.122 59.8192 108.373 59.7831 108.617C59.7807 108.633 59.7815 108.65 59.7855 108.666C59.7896 108.682 59.7968 108.697 59.8067 108.71C59.8166 108.723 59.8291 108.735 59.8434 108.743C59.8576 108.751 59.8734 108.757 59.8898 108.759H59.9087C59.939 108.759 59.9682 108.748 59.9909 108.728C60.0137 108.708 60.0285 108.681 60.0327 108.651C60.0688 108.407 60.105 108.156 60.1394 107.907C60.1433 107.874 60.1341 107.841 60.1139 107.815C60.0936 107.789 60.0638 107.771 60.0309 107.767Z" fill="white"/>
<path d="M59.5491 110.729C59.5164 110.722 59.4825 110.729 59.4548 110.747C59.427 110.766 59.4077 110.794 59.4011 110.827C59.3529 111.073 59.3029 111.318 59.2496 111.56C59.243 111.593 59.2495 111.627 59.2679 111.655C59.2863 111.683 59.315 111.703 59.3477 111.71H59.3735C59.4024 111.709 59.4302 111.699 59.4527 111.681C59.4752 111.663 59.491 111.638 59.4975 111.61C59.5491 111.366 59.6007 111.119 59.6489 110.873C59.6519 110.857 59.6517 110.841 59.6482 110.825C59.6448 110.809 59.6383 110.794 59.629 110.78C59.6197 110.767 59.6079 110.756 59.5942 110.747C59.5805 110.738 59.5651 110.732 59.5491 110.729Z" fill="white"/>
<path d="M60.3442 104.785C60.3109 104.783 60.2781 104.794 60.2526 104.815C60.2272 104.837 60.2113 104.867 60.2082 104.901C60.1893 105.148 60.1669 105.399 60.1428 105.646C60.1399 105.679 60.1501 105.712 60.1714 105.738C60.1926 105.763 60.2231 105.78 60.2563 105.783H60.2684C60.3 105.783 60.3305 105.772 60.3538 105.75C60.3771 105.729 60.3915 105.7 60.3941 105.668C60.4182 105.421 60.4405 105.17 60.4594 104.921C60.4609 104.905 60.459 104.888 60.454 104.872C60.4489 104.857 60.4408 104.842 60.43 104.829C60.4193 104.817 60.4062 104.806 60.3915 104.799C60.3767 104.791 60.3607 104.787 60.3442 104.785Z" fill="white"/>
<path d="M59.8123 109.252C59.796 109.249 59.7793 109.249 59.7631 109.253C59.747 109.257 59.7317 109.263 59.7183 109.273C59.7048 109.283 59.6933 109.295 59.6846 109.309C59.676 109.323 59.6703 109.339 59.6678 109.355C59.6264 109.601 59.5835 109.85 59.5404 110.092C59.5372 110.108 59.5373 110.125 59.5407 110.141C59.5441 110.157 59.5507 110.173 59.5602 110.186C59.5697 110.2 59.5818 110.211 59.5958 110.22C59.6099 110.229 59.6256 110.235 59.642 110.238H59.6643C59.694 110.237 59.7225 110.227 59.7452 110.208C59.7678 110.189 59.7831 110.162 59.7883 110.133C59.8313 109.889 59.8743 109.64 59.9156 109.393C59.9205 109.36 59.9125 109.327 59.8931 109.301C59.8738 109.275 59.8447 109.257 59.8123 109.252Z" fill="white"/>
<path d="M60.5352 98.7949C60.5017 98.7954 60.4698 98.809 60.4463 98.8328C60.4228 98.8565 60.4095 98.8886 60.4095 98.922C60.4095 99.1641 60.4095 99.408 60.4095 99.6536V99.6707C60.4132 99.7017 60.4281 99.7303 60.4514 99.751C60.4747 99.7717 60.5048 99.7831 60.536 99.7831C60.5672 99.7831 60.5974 99.7717 60.6207 99.751C60.644 99.7303 60.659 99.7017 60.6626 99.6707V99.6536C60.6626 99.4063 60.6626 99.1624 60.6626 98.9203C60.6626 98.9037 60.6592 98.8872 60.6528 98.8719C60.6464 98.8566 60.6369 98.8427 60.6251 98.831C60.6132 98.8193 60.5992 98.8102 60.5838 98.804C60.5683 98.7978 60.5518 98.7947 60.5352 98.7949Z" fill="white"/>
<path d="M60.5352 100.295C60.502 100.295 60.4702 100.308 60.4464 100.331C60.4226 100.354 60.4087 100.385 60.4078 100.419C60.4078 100.666 60.4078 100.917 60.3958 101.167C60.3953 101.184 60.3981 101.2 60.404 101.216C60.4099 101.231 60.4188 101.245 60.4302 101.257C60.4415 101.269 60.4551 101.279 60.4702 101.285C60.4852 101.292 60.5015 101.296 60.518 101.296C60.551 101.296 60.5827 101.283 60.6062 101.26C60.6297 101.237 60.6432 101.205 60.6436 101.172C60.6436 100.92 60.654 100.671 60.6557 100.422C60.6562 100.406 60.6534 100.39 60.6476 100.374C60.6418 100.359 60.633 100.345 60.6219 100.333C60.6107 100.322 60.5972 100.312 60.5824 100.306C60.5675 100.299 60.5515 100.295 60.5352 100.295Z" fill="white"/>
<path d="M60.5076 101.793C60.4911 101.793 60.4747 101.795 60.4593 101.801C60.4439 101.807 60.4298 101.816 60.4178 101.827C60.4058 101.839 60.3962 101.852 60.3895 101.867C60.3828 101.882 60.379 101.898 60.3786 101.915C60.37 102.164 60.3596 102.416 60.3493 102.662C60.3484 102.679 60.3508 102.695 60.3564 102.711C60.3619 102.727 60.3706 102.741 60.3818 102.753C60.393 102.766 60.4066 102.776 60.4217 102.783C60.4368 102.79 60.4532 102.794 60.4698 102.794C60.5021 102.794 60.533 102.781 60.5564 102.759C60.5797 102.737 60.5937 102.706 60.5955 102.674C60.6075 102.427 60.6161 102.174 60.6247 101.924C60.6257 101.891 60.6141 101.859 60.5923 101.835C60.5706 101.811 60.5402 101.796 60.5076 101.793Z" fill="white"/>
<path d="M60.444 103.289C60.4107 103.288 60.3782 103.299 60.3535 103.321C60.3287 103.344 60.3137 103.375 60.3114 103.408C60.2977 103.657 60.2822 103.909 60.265 104.155C60.2638 104.171 60.2658 104.188 60.2711 104.203C60.2764 104.219 60.2847 104.234 60.2956 104.246C60.3064 104.258 60.3196 104.269 60.3345 104.276C60.3493 104.283 60.3654 104.288 60.3819 104.289H60.3906C60.4225 104.289 60.4532 104.277 60.4765 104.255C60.4998 104.233 60.514 104.204 60.5162 104.172C60.5334 103.925 60.5489 103.672 60.5627 103.421C60.5636 103.405 60.5613 103.388 60.5558 103.373C60.5503 103.357 60.5418 103.343 60.5308 103.331C60.5197 103.318 60.5064 103.308 60.4915 103.301C60.4766 103.294 60.4605 103.29 60.444 103.289Z" fill="white"/>
<path d="M59.2393 112.194C59.2067 112.187 59.1725 112.193 59.1442 112.211C59.1159 112.228 59.0956 112.257 59.0878 112.289C59.031 112.531 58.9725 112.777 58.9157 113.015C58.9116 113.032 58.9108 113.048 58.9133 113.065C58.9157 113.081 58.9214 113.097 58.9301 113.111C58.9387 113.125 58.9501 113.138 58.9636 113.148C58.9771 113.157 58.9924 113.164 59.0086 113.168H59.0379C59.0659 113.168 59.0931 113.159 59.1153 113.142C59.1374 113.125 59.1532 113.101 59.1601 113.074C59.2203 112.832 59.2805 112.586 59.3322 112.342C59.3385 112.31 59.3324 112.277 59.3151 112.25C59.2978 112.222 59.2708 112.203 59.2393 112.194Z" fill="white"/>
<path d="M57.4683 117.918C57.4525 117.911 57.4353 117.907 57.4178 117.906C57.4002 117.906 57.3829 117.909 57.3667 117.916C57.3505 117.922 57.3358 117.932 57.3236 117.945C57.3115 117.957 57.3022 117.972 57.2962 117.989C57.2016 118.219 57.1035 118.451 57.0054 118.676C56.9977 118.691 56.9933 118.708 56.9925 118.725C56.9916 118.743 56.9944 118.76 57.0005 118.776C57.0067 118.792 57.0161 118.807 57.0282 118.819C57.0403 118.831 57.0548 118.841 57.0708 118.848C57.0865 118.854 57.1035 118.858 57.1207 118.858C57.1452 118.858 57.1692 118.851 57.1897 118.837C57.2102 118.824 57.2262 118.805 57.236 118.782C57.3358 118.556 57.4339 118.322 57.5285 118.095C57.5372 118.08 57.5426 118.063 57.5442 118.045C57.5459 118.028 57.5437 118.01 57.538 117.994C57.5323 117.977 57.5232 117.961 57.5112 117.949C57.4992 117.936 57.4846 117.925 57.4683 117.918Z" fill="white"/>
<path d="M56.873 119.291C56.8577 119.283 56.8411 119.279 56.8241 119.278C56.8072 119.277 56.7902 119.279 56.7741 119.284C56.7581 119.29 56.7434 119.299 56.7308 119.31C56.7182 119.322 56.708 119.335 56.7009 119.351C56.5959 119.576 56.4857 119.802 56.3756 120.022C56.3679 120.037 56.3632 120.054 56.3619 120.07C56.3607 120.087 56.3627 120.104 56.368 120.12C56.3733 120.136 56.3817 120.151 56.3927 120.163C56.4038 120.176 56.4173 120.186 56.4324 120.194C56.4495 120.202 56.4684 120.206 56.4874 120.206C56.5108 120.206 56.5337 120.199 56.5537 120.187C56.5737 120.175 56.5901 120.158 56.601 120.137C56.7129 119.914 56.823 119.687 56.9297 119.459C56.9371 119.444 56.9415 119.428 56.9426 119.412C56.9438 119.395 56.9416 119.379 56.9363 119.363C56.931 119.347 56.9227 119.333 56.9119 119.32C56.901 119.308 56.8878 119.298 56.873 119.291Z" fill="white"/>
<path d="M56.2086 120.637C56.194 120.629 56.1778 120.624 56.1612 120.622C56.1446 120.62 56.1277 120.622 56.1117 120.626C56.0957 120.631 56.0808 120.639 56.0678 120.65C56.0549 120.66 56.0443 120.674 56.0365 120.688C55.9195 120.906 55.7973 121.126 55.6751 121.341C55.6668 121.355 55.6615 121.371 55.6595 121.388C55.6575 121.404 55.6587 121.421 55.6632 121.437C55.6677 121.453 55.6753 121.468 55.6857 121.481C55.696 121.494 55.7088 121.505 55.7233 121.513C55.7419 121.524 55.7634 121.53 55.7852 121.53C55.8075 121.529 55.8293 121.523 55.8486 121.512C55.8679 121.501 55.884 121.485 55.8954 121.466C56.0176 121.248 56.1398 121.027 56.2585 120.807C56.274 120.778 56.2775 120.743 56.2682 120.712C56.2589 120.68 56.2375 120.653 56.2086 120.637Z" fill="white"/>
<path d="M54.67 123.208C54.6426 123.19 54.6095 123.184 54.5775 123.19C54.5455 123.196 54.517 123.214 54.4979 123.24C54.3585 123.445 54.214 123.651 54.0694 123.852C54.0557 123.871 54.0474 123.893 54.0457 123.916C54.0439 123.939 54.0486 123.963 54.0594 123.983C54.0701 124.004 54.0863 124.021 54.1063 124.033C54.1263 124.045 54.1493 124.051 54.1726 124.051C54.1924 124.051 54.212 124.046 54.2297 124.037C54.2474 124.028 54.2627 124.015 54.2742 123.999C54.4205 123.795 54.5668 123.589 54.7062 123.383C54.7245 123.355 54.731 123.321 54.7242 123.288C54.7175 123.255 54.698 123.226 54.67 123.208Z" fill="white"/>
<path d="M55.4736 121.944C55.4451 121.927 55.411 121.921 55.3788 121.93C55.3465 121.938 55.3187 121.958 55.3015 121.986C55.1742 122.198 55.0399 122.411 54.9074 122.62C54.8899 122.648 54.884 122.682 54.8911 122.714C54.8982 122.746 54.9177 122.774 54.9453 122.792C54.9652 122.805 54.9886 122.812 55.0125 122.813C55.0338 122.813 55.0548 122.808 55.0735 122.797C55.0922 122.787 55.1079 122.772 55.1191 122.754C55.2551 122.543 55.3876 122.328 55.5167 122.115C55.5333 122.087 55.5381 122.053 55.5301 122.021C55.5221 121.989 55.5018 121.961 55.4736 121.944Z" fill="white"/>
<path d="M57.9967 116.515C57.9813 116.51 57.9648 116.507 57.9483 116.508C57.9319 116.509 57.9157 116.513 57.9008 116.52C57.8859 116.527 57.8725 116.537 57.8615 116.549C57.8505 116.561 57.8421 116.575 57.8367 116.591C57.7523 116.826 57.6646 117.062 57.5785 117.292C57.5724 117.307 57.5695 117.324 57.5699 117.34C57.5702 117.357 57.5738 117.373 57.5805 117.388C57.5872 117.404 57.5969 117.417 57.609 117.429C57.6211 117.44 57.6353 117.449 57.6509 117.455C57.6657 117.457 57.6807 117.457 57.6956 117.455C57.7212 117.455 57.7462 117.447 57.7674 117.433C57.7886 117.418 57.805 117.398 57.8143 117.374C57.9021 117.142 57.9865 116.905 58.0742 116.668C58.0832 116.638 58.0801 116.605 58.0657 116.577C58.0514 116.548 58.0267 116.526 57.9967 116.515Z" fill="white"/>
<path d="M58.8796 113.653C58.8636 113.649 58.847 113.647 58.8306 113.649C58.8142 113.651 58.7983 113.657 58.784 113.665C58.7696 113.673 58.7569 113.684 58.7467 113.697C58.7366 113.71 58.7291 113.725 58.7247 113.741C58.6593 113.981 58.5922 114.223 58.5234 114.46C58.5186 114.476 58.5171 114.493 58.5189 114.509C58.5207 114.526 58.5257 114.542 58.5337 114.556C58.5417 114.571 58.5525 114.584 58.5655 114.594C58.5785 114.604 58.5934 114.612 58.6094 114.617H58.6438C58.6713 114.617 58.6981 114.608 58.7201 114.591C58.7421 114.575 58.7583 114.552 58.7661 114.526C58.8349 114.287 58.9037 114.043 58.9674 113.801C58.9748 113.77 58.9697 113.737 58.9534 113.709C58.937 113.682 58.9105 113.662 58.8796 113.653Z" fill="white"/>
<path d="M58.47 115.092C58.4541 115.087 58.4375 115.085 58.421 115.086C58.4044 115.088 58.3883 115.092 58.3736 115.1C58.3589 115.108 58.3458 115.118 58.3352 115.131C58.3245 115.144 58.3165 115.159 58.3116 115.174C58.2376 115.413 58.1602 115.652 58.0827 115.885C58.0724 115.917 58.0751 115.952 58.0902 115.982C58.1054 116.012 58.1318 116.034 58.1637 116.045C58.1768 116.047 58.1901 116.047 58.2032 116.045C58.2296 116.045 58.2551 116.037 58.2764 116.021C58.2977 116.006 58.3137 115.984 58.322 115.959C58.4011 115.724 58.4786 115.483 58.5526 115.243C58.5612 115.212 58.5574 115.179 58.542 115.151C58.5266 115.123 58.5007 115.101 58.47 115.092Z" fill="white"/>
<path d="M59.6197 87.3474C59.6131 87.3146 59.5937 87.2857 59.5658 87.2672C59.5378 87.2487 59.5037 87.242 59.4708 87.2486C59.4379 87.2552 59.409 87.2746 59.3905 87.3024C59.3719 87.3303 59.3653 87.3644 59.3719 87.3972C59.3719 87.3972 59.3977 87.5243 59.4407 87.7647C59.4456 87.794 59.4607 87.8206 59.4834 87.8398C59.5061 87.859 59.5348 87.8695 59.5646 87.8695H59.587C59.6197 87.8632 59.6485 87.8444 59.6675 87.8171C59.6865 87.7899 59.6941 87.7562 59.6885 87.7235C59.6455 87.483 59.6197 87.3474 59.6197 87.3474Z" fill="white"/>
<g opacity="0.5">
<path opacity="0.5" d="M68.5552 94.0166C69.2777 97.9808 69.5588 102.013 69.3934 106.038C69.279 109.769 68.7009 113.471 67.6723 117.059C66.4315 121.242 64.5435 124.878 62.0583 127.863L62.2528 128.024C64.7603 125.012 66.6655 121.345 67.9149 117.128C68.9507 113.518 69.5334 109.794 69.6497 106.042C69.9096 99.2598 68.8167 94.02 68.8047 93.9668L68.5552 94.0166Z" fill="white"/>
</g>
<g opacity="0.5">
<path opacity="0.5" d="M51.9885 117.992C51.3908 119.088 50.6876 120.123 49.8889 121.083L50.0765 121.255C50.8877 120.284 51.6008 119.235 52.2054 118.124C53.2002 116.333 54.4289 113.511 54.6441 110.224L54.3928 110.207C54.1811 113.443 52.9626 116.227 51.9885 117.992Z" fill="white"/>
</g>
<path d="M37.8057 131.91L43.4954 142.848L46.0803 141.732L39.5456 130.973L37.8057 131.91Z" fill="#3C5CC9"/>
<g opacity="0.5">
<path opacity="0.5" d="M70.4586 94.856L70.6892 100.312C70.7098 100.784 69.9715 101.485 69.6858 101.715L69.8441 101.911C69.8889 101.873 70.9697 100.997 70.9404 100.3L70.7098 94.8457L70.4586 94.856Z" fill="white"/>
</g>
<path d="M42.7244 116.107L45.0632 117.718L49.9527 107.391L48.0544 106.129L42.7244 116.107Z" fill="#3C5CC9"/>
<path d="M48.3367 67.1729C47.0373 67.4425 46.8583 70.2762 47.5725 73.7093C48.2868 77.1424 49.0733 79.8301 50.3726 79.5604C51.672 79.2908 52.1452 76.2974 51.4293 72.8626C50.7133 69.4278 49.636 66.9119 48.3367 67.1729Z" fill="#190066"/>
<path d="M45.7344 68.6106V57.9817C45.7344 57.9817 47.187 55.9688 47.1112 55.1634C47.0355 54.3579 44.5297 52.1838 44.6106 52.6681C44.6915 53.1524 44.8532 53.7947 44.8532 53.7947C44.8532 53.7947 44.0461 52.5924 43.3199 52.7487C42.5127 52.2644 41.2219 53.0699 41.2219 53.0699C41.2219 53.0699 40.253 52.9892 40.1721 53.3121C40.0912 53.6349 39.2032 53.4735 39.0431 53.9561C38.8831 54.4387 39.6885 56.7743 40.4956 57.3376C41.3028 57.9009 37.4408 67.6918 38.4907 72.4421C39.5405 77.1924 53.4876 78.3551 53.4876 78.3551C53.4876 78.3551 55.2913 75.9782 51.9008 69.2151L45.7344 68.6106Z" fill="#FEB8C0"/>
<path d="M51.2967 65.066L45.7654 58.959C45.4602 61.4778 45.1549 63.9921 44.8497 66.5018C44.7138 67.6284 44.5848 68.8185 45.0374 69.861C45.7155 71.429 47.4812 72.1984 48.5982 73.4916C50.3777 75.5524 50.2847 78.6111 49.722 81.2679C49.6462 81.6251 49.598 82.0768 49.8941 82.2795C50.1901 82.4821 50.5911 82.2794 50.8751 82.0579C51.6591 81.4295 52.3688 80.7139 52.9902 79.9249C54.3085 78.3312 55.4926 76.5846 56.1449 74.6233C56.7971 72.662 56.8797 70.4518 56.0433 68.5609C55.2068 66.6701 53.3653 65.1742 51.2967 65.066Z" fill="#F98C8F"/>
<path d="M41.8002 54.1408C41.7342 54.0789 41.664 54.0215 41.5902 53.9691C41.4473 53.8659 41.2965 53.774 41.1393 53.6943C40.8309 53.5353 40.5068 53.4086 40.1722 53.3164C40.4647 53.5019 40.7573 53.677 41.0327 53.8642C41.1721 53.9587 41.3114 54.0532 41.437 54.1562C41.4976 54.2066 41.555 54.2605 41.6091 54.3177C41.6586 54.366 41.6969 54.4247 41.7211 54.4894C41.7287 54.5054 41.7317 54.5233 41.7297 54.541C41.7297 54.5496 41.7193 54.5598 41.7021 54.5753C41.6439 54.6106 41.5798 54.6351 41.5128 54.6474C41.3521 54.6769 41.1892 54.693 41.0258 54.6955C40.6816 54.6955 40.346 54.6955 39.9932 54.6955C40.3243 54.8021 40.6668 54.8695 41.0137 54.8964C41.1924 54.9152 41.3728 54.9118 41.5507 54.8861C41.654 54.8723 41.7532 54.8366 41.8415 54.7814C41.9 54.739 41.9429 54.6787 41.9637 54.6097C41.9804 54.5431 41.9768 54.4732 41.9534 54.4087C41.922 54.3096 41.8698 54.2182 41.8002 54.1408Z" fill="#F98C8F"/>
<path d="M43.0875 56.6077C42.9742 56.1903 42.7794 55.7992 42.5144 55.457C42.2402 55.1097 41.866 54.8545 41.4422 54.7254L41.3647 54.7014L41.2839 54.6859C41.2312 54.6727 41.1777 54.663 41.1238 54.6568L40.962 54.6412C40.9087 54.6378 40.8553 54.6378 40.802 54.6412C40.6954 54.6417 40.5892 54.6492 40.4836 54.6636C40.3769 54.6774 40.2737 54.7031 40.1721 54.7254H40.3304C40.3821 54.7254 40.4337 54.7254 40.4853 54.7254C40.5885 54.7296 40.6914 54.74 40.7934 54.7564C40.9938 54.7822 41.1903 54.8323 41.3785 54.9057C41.4233 54.9263 41.4715 54.9418 41.5145 54.9659L41.647 55.0329C41.7338 55.0838 41.8167 55.1412 41.8948 55.2046C42.052 55.3245 42.1941 55.4629 42.3182 55.6168C42.5654 55.9365 42.7621 56.2922 42.9016 56.6713C43.0487 57.0591 43.1639 57.4582 43.2458 57.8648C43.2567 57.6538 43.2486 57.4424 43.2217 57.2328C43.1932 57.0213 43.1483 56.8123 43.0875 56.6077Z" fill="#F98C8F"/>
<path d="M42.8913 53.8229C42.8055 53.7098 42.7054 53.6082 42.5936 53.5206C42.4848 53.4353 42.3698 53.3584 42.2494 53.2905C42.1322 53.2223 42.011 53.1615 41.8863 53.1084C41.7625 53.053 41.6325 53.0126 41.499 52.9883C41.6126 53.0587 41.7193 53.1377 41.826 53.2149C41.9327 53.2922 42.036 53.3729 42.1375 53.4519C42.3393 53.6013 42.5225 53.7743 42.6831 53.9671C42.8294 54.1578 42.8397 54.3518 42.6194 54.436C42.5033 54.4782 42.3814 54.5019 42.2579 54.5064C42.1262 54.5162 41.9941 54.519 41.8621 54.515C41.9869 54.5698 42.1182 54.6086 42.2528 54.6301C42.3937 54.6584 42.5388 54.6584 42.6796 54.6301C42.7604 54.611 42.8354 54.5726 42.8982 54.5184C42.9661 54.4566 43.0109 54.3737 43.0255 54.2832C43.0385 54.1964 43.029 54.1077 42.998 54.0256C42.9723 53.9533 42.9363 53.8851 42.8913 53.8229Z" fill="#F98C8F"/>
<path d="M44.3369 53.9663C44.131 54.0005 43.9461 54.1124 43.8206 54.2789C43.7037 54.4354 43.6252 54.6172 43.5917 54.8095C43.5539 54.9925 43.5539 55.1813 43.5917 55.3642C43.6519 55.1925 43.7088 55.0208 43.7759 54.8645C43.8349 54.7107 43.9148 54.5656 44.0134 54.4334C44.1058 54.3096 44.2309 54.2138 44.3748 54.157C44.5386 54.103 44.71 54.0757 44.8825 54.0762C44.8008 54.0284 44.7119 53.9942 44.6192 53.9749C44.5265 53.9544 44.4307 53.9515 44.3369 53.9663Z" fill="#F98C8F"/>
<path d="M44.185 54.0297C44.185 54.0215 44.2028 54.0117 44.185 54.0297C44.1672 54.0476 44.185 54.0297 44.185 54.0297Z" fill="#F98C8F"/>
<path d="M44.2388 53.6739C44.1328 53.5626 44.0176 53.4604 43.8946 53.3682C43.7741 53.2789 43.6485 53.1965 43.5211 53.1158C43.2662 52.9565 42.9978 52.8198 42.7191 52.707C42.9446 52.9062 43.1769 53.09 43.4075 53.2755C43.5228 53.3682 43.6364 53.461 43.7517 53.5554C43.8612 53.646 43.9652 53.7429 44.0632 53.8456C44.1076 53.8889 44.1459 53.938 44.1769 53.9916C44.1809 54 44.1843 54.0086 44.1871 54.0174C44.2095 54.0036 44.1871 54.0174 44.1871 54.0174C44.0687 54.0801 43.9409 54.1231 43.8085 54.1445C43.5181 54.1922 43.2249 54.222 42.9308 54.2338C43.2232 54.3201 43.5282 54.3561 43.8327 54.3402C43.996 54.3337 44.1563 54.2946 44.3042 54.2252C44.3327 54.2126 44.3584 54.1945 44.3799 54.1719C44.4091 54.1415 44.4288 54.1034 44.4367 54.0621C44.446 53.9997 44.4351 53.9359 44.4057 53.88C44.3602 53.8037 44.304 53.7343 44.2388 53.6739Z" fill="#F98C8F"/>
<path d="M83.8223 52.9294C84.4917 52.2064 84.7826 49.7539 84.5227 49.3229C84.2628 48.8918 83.4282 49.2301 83.2802 48.933C83.1321 48.6359 82.2045 48.9193 82.2045 48.9193C82.2045 48.9193 80.7709 48.4041 80.0859 49.0498C79.3407 49.0498 78.8106 50.398 78.8106 50.398C78.8106 50.398 78.8313 49.7351 78.8106 49.2456C78.79 48.7562 76.8056 51.4113 76.8968 52.215C76.988 53.0188 78.8382 54.6777 78.8382 54.6777L81.103 65.0645L74.3652 66.7046C72.4945 74.0327 75.6078 76.2292 75.6078 76.2292C75.6078 76.2292 88.605 72.3394 88.617 67.4705C88.629 62.6017 83.1545 53.6507 83.8223 52.9294Z" fill="#FEB8C0"/>
<path d="M81.943 72.6388C81.5988 71.1309 83.5763 69.6522 83.5814 68.1066C83.5952 63.5246 80.2151 59.0147 78.6473 54.7109L73.615 62.9854C72.8159 64.3468 72.1431 65.7782 71.6048 67.2617C70.7787 69.5441 70.3141 72.2163 71.5601 74.303C72.8646 76.484 75.5735 77.3015 78.0346 77.9421L82.0342 78.9829C83.0455 79.2689 84.0739 79.4915 85.1131 79.6492C85.2662 79.6827 85.4256 79.6744 85.5744 79.6251C86.1062 79.4001 85.7843 78.5947 85.4023 78.1688C83.9291 76.5287 82.4335 74.7787 81.943 72.6388Z" fill="#F98C8F"/>
<path d="M82.2423 50.5076C82.1751 50.5102 82.108 50.5003 82.0444 50.4783C82.0309 50.4722 82.019 50.4628 82.01 50.4509C82.0054 50.4334 82.0054 50.4151 82.01 50.3976C82.0218 50.3315 82.047 50.2683 82.084 50.2122C82.126 50.1448 82.172 50.08 82.2217 50.0181C82.3232 49.8893 82.4386 49.7674 82.5556 49.6454C82.7914 49.4033 83.0392 49.1697 83.2853 48.9258C82.9792 49.0871 82.6908 49.28 82.4248 49.5011C82.2879 49.6121 82.1602 49.7339 82.0428 49.8652C81.9794 49.933 81.9218 50.006 81.8707 50.0833C81.8124 50.1694 81.7741 50.2674 81.7587 50.3701C81.7497 50.4378 81.7611 50.5065 81.7914 50.5676C81.8268 50.629 81.8812 50.6772 81.9464 50.7051C82.0442 50.7411 82.1488 50.7551 82.2527 50.7462C82.4318 50.7338 82.6087 50.6992 82.7793 50.6432C83.1122 50.5427 83.4322 50.4038 83.7328 50.2293C83.3886 50.3066 83.0633 50.389 82.7329 50.4526C82.5711 50.4842 82.4071 50.5027 82.2423 50.5076Z" fill="#F98C8F"/>
<path d="M83.2646 50.3092C83.1582 50.3173 83.0525 50.3322 82.948 50.3538C82.8952 50.3638 82.8429 50.3764 82.7914 50.3916L82.6365 50.4414C82.5856 50.4595 82.5356 50.4801 82.4867 50.5032L82.4128 50.5376C82.387 50.5496 82.3646 50.5634 82.3405 50.5771C81.9543 50.793 81.6433 51.1213 81.449 51.5183C81.2629 51.9091 81.1558 52.3328 81.1341 52.765C81.1214 52.9768 81.1243 53.1892 81.1427 53.4005C81.1608 53.6113 81.1983 53.8199 81.2546 54.0239C81.2444 53.6098 81.2691 53.1956 81.3285 52.7857C81.3833 52.3856 81.4994 51.9964 81.6727 51.6315C81.7608 51.4548 81.8701 51.2893 81.998 51.1387C82.0611 51.0624 82.1302 50.9911 82.2046 50.9257L82.3199 50.8313C82.3577 50.7987 82.4007 50.7729 82.4403 50.7437C82.6087 50.6316 82.7902 50.5405 82.9807 50.4723C83.0754 50.4328 83.1752 50.4088 83.275 50.3779C83.3247 50.3625 83.3753 50.3498 83.4264 50.3401L83.5796 50.304C83.4763 50.304 83.3696 50.2989 83.2646 50.3092Z" fill="#F98C8F"/>
<path d="M81.3853 49.4836C81.4679 49.384 81.5574 49.2844 81.64 49.1865C81.7227 49.0886 81.8122 48.9873 81.912 48.8945C81.7864 48.947 81.6675 49.0139 81.5574 49.0938C81.4479 49.1727 81.3427 49.2576 81.2425 49.3479C81.141 49.4398 81.0467 49.5391 80.9603 49.6451C80.8692 49.7543 80.7928 49.875 80.7331 50.004C80.7002 50.0742 80.6777 50.1488 80.666 50.2255C80.6539 50.3119 80.6639 50.4 80.6952 50.4814C80.7271 50.5674 80.7879 50.6397 80.8673 50.6858C80.9401 50.7258 81.0217 50.747 81.1048 50.7476C81.2485 50.7467 81.3907 50.7175 81.5231 50.6617C81.65 50.6122 81.7702 50.547 81.881 50.4677C81.7485 50.4969 81.6194 50.5261 81.4921 50.5432C81.37 50.5621 81.2458 50.5621 81.1237 50.5432C80.8897 50.5089 80.8587 50.3166 80.962 50.0985C81.0774 49.877 81.2195 49.6705 81.3853 49.4836Z" fill="#F98C8F"/>
<path d="M79.9173 50.6475C79.761 50.5115 79.5582 50.4408 79.3511 50.45C79.2522 50.4549 79.1551 50.4788 79.0653 50.5205C78.9798 50.5595 78.9008 50.6117 78.8313 50.675C79.0008 50.6379 79.1752 50.6286 79.3476 50.6475C79.5005 50.672 79.6436 50.7387 79.7606 50.8399C79.8838 50.9493 79.9925 51.074 80.0842 51.2108C80.1823 51.3517 80.2735 51.5028 80.3699 51.6608C80.3707 51.4736 80.3326 51.2881 80.258 51.1163C80.1837 50.9351 80.0668 50.7743 79.9173 50.6475Z" fill="#F98C8F"/>
<path d="M79.5164 50.4734C79.4938 50.4595 79.5147 50.4647 79.5164 50.4734V50.4734Z" fill="#F98C8F"/>
<path d="M79.5232 50.4694C79.5232 50.4694 79.5232 50.478 79.5232 50.4694C79.5232 50.4609 79.5009 50.4557 79.5232 50.4694C79.5219 50.4603 79.5219 50.4511 79.5232 50.442C79.5412 50.3813 79.5679 50.3235 79.6024 50.2703C79.6772 50.1516 79.7582 50.037 79.8451 49.9268C79.9346 49.81 80.0258 49.6967 80.1187 49.5833C80.3011 49.3532 80.4904 49.1247 80.6677 48.8809C80.4224 49.0511 80.1921 49.2419 79.9793 49.4511C79.8709 49.5541 79.7659 49.664 79.6678 49.7774C79.5652 49.8937 79.4726 50.0184 79.3907 50.15C79.3452 50.2231 79.3104 50.3024 79.2874 50.3853C79.2708 50.4465 79.2738 50.5114 79.296 50.5708C79.3107 50.6043 79.3332 50.6338 79.3616 50.6568C79.3901 50.6798 79.4237 50.6957 79.4595 50.7031C79.6195 50.7395 79.7851 50.7435 79.9466 50.7151C80.2482 50.6662 80.5392 50.5664 80.8071 50.4197C80.5174 50.4704 80.2249 50.5031 79.9311 50.5176C79.7934 50.5245 79.6555 50.5082 79.5232 50.4694Z" fill="#F98C8F"/>
<path d="M79.4664 63.8809C79.4664 63.8809 75.3119 67.2504 72.5823 66.8623C69.8528 66.4742 64.6656 67.7691 64.6656 67.7691C64.6656 67.7691 62.8465 67.2538 58.8142 68.0283C54.7818 68.8029 48.889 67.496 48.889 67.496C48.889 67.496 53.88 76.7115 49.4638 79.1743C49.5482 79.7256 49.8081 79.9849 50.1643 80.0759C50.913 80.2631 52.1366 79.7324 53.3602 79.5607C55.1776 79.3014 54.9177 80.7268 54.9177 80.7268L53.7492 94.466C53.7492 94.466 59.6007 94.1224 59.8537 94.1637C62.1908 94.5964 73.5581 93.0783 76.6491 93.9919C80.1565 95.0223 76.0863 87.598 76.2171 85.3946C76.3273 83.5158 76.6267 78.9046 76.7128 77.5874C76.7265 77.359 76.7369 77.2301 76.7369 77.2301L82.3233 75.1538C82.4232 74.9966 82.5118 74.8325 82.5884 74.6627C83.0668 73.6323 83.8808 71.0956 82.1942 68.0267C79.9827 64.0114 79.4664 63.8809 79.4664 63.8809Z" fill="#3C5CC9"/>
<path d="M55.4049 77.9324C55.3317 77.9304 55.2602 77.9548 55.2035 78.0011C54.8369 78.257 54.6872 78.719 54.5667 79.15C54.4462 79.5811 54.3224 80.0431 53.9799 80.3299C53.6374 80.6167 53.004 80.5944 52.8388 80.1805C52.7937 80.0356 52.7802 79.8828 52.7992 79.7322C52.8973 78.154 53.1555 76.5052 52.5704 75.0352C52.3363 76.1429 52.0919 77.2764 51.4999 78.2416C50.9079 79.2068 49.8907 79.9933 48.7548 79.9933L47.7773 80.1255C47.6861 81.0272 47.6052 81.9923 48.0424 82.7875C48.6017 83.8179 49.8442 84.2507 51.0025 84.4225C51.6513 84.5186 52.3673 84.5427 52.8956 84.1632C53.1909 83.9206 53.4353 83.6224 53.615 83.2855C54.5633 81.7553 55.5425 80.1324 55.6028 78.3343C55.6131 78.1694 55.5701 77.953 55.4049 77.9324Z" fill="#284BAF"/>
<path d="M70.1093 64.0105C66.4951 63.8799 62.9344 64.8108 59.3512 65.3088C55.7681 65.8069 51.9181 65.8241 48.7704 64.0448L49.1696 66.8133C50.5791 66.8854 51.1333 68.6903 52.2898 69.4992C53.2157 70.1467 54.4583 70.09 55.5598 69.8565C56.6612 69.6229 57.7645 69.2331 58.8917 69.3035C60.4045 69.398 61.7296 70.2962 63.1426 70.8492C65.3799 71.7079 67.9133 71.6889 70.2091 70.99C71.4259 70.619 72.6289 70.03 73.4068 69.0253C74.1847 68.0206 74.4239 66.5264 73.7114 65.4737C72.961 64.3539 71.4551 64.0603 70.1093 64.0105Z" fill="#284BAF"/>
<path d="M77.1585 78.123C76.4701 79.6447 75.7679 81.1921 74.6665 82.4475C73.565 83.7029 71.9817 84.6458 70.3105 84.5822L74.2982 87.4589C74.6803 87.7336 75.0727 88.0204 75.3102 88.4257C75.5151 88.8237 75.6224 89.2645 75.6234 89.712C75.713 91.4367 75.2723 93.1476 74.3602 94.6152L76.9744 96.1214C78.333 95.578 79.6308 94.8942 80.8467 94.0811C81.0581 93.9582 81.2415 93.7927 81.3853 93.5951C81.7949 92.9425 81.2649 92.1285 80.8088 91.5085C78.0242 87.7233 77.3478 82.815 77.1585 78.123Z" fill="#284BAF"/>
<path d="M69.3124 53.0098C67.9459 52.9669 67.2592 51.1533 63.1752 51.8609C59.0912 52.5685 60.7193 55.7302 60.7193 55.7302C53.8542 59.3969 61.0292 63.2283 61.0292 63.2283C61.0292 63.2283 65.3678 60.8154 70.0301 58.217C74.6923 55.6186 70.6892 53.0545 69.3124 53.0098Z" fill="#F61D6B"/>
<path d="M71.8767 54.5464C70.9611 54.7174 70.0208 54.7068 69.1093 54.5154C68.1128 54.2853 67.1886 53.7804 66.1835 53.6069C65.1784 53.4335 63.9634 53.7066 63.5056 54.6202C63.5709 54.1849 63.5986 53.7447 63.5883 53.3047C63.1687 53.4435 62.8003 53.7045 62.5307 54.054C62.2611 54.4036 62.1026 54.8257 62.0755 55.2659C62.0659 55.4301 62.1096 55.5929 62.2001 55.7303C62.2907 55.8676 62.4232 55.9722 62.578 56.0284C61.6568 56.3237 60.8025 56.7963 60.0636 57.4196C59.9455 57.5175 59.8528 57.6424 59.7934 57.7837C59.6213 58.213 59.8967 58.4466 60.172 58.5994C60.6703 58.8732 61.243 58.9815 61.807 58.9085C61.3898 59.1356 61.0217 59.4428 60.724 59.8125C60.4263 60.1822 60.2048 60.6069 60.0723 61.0624C59.9398 61.5178 59.8991 61.9949 59.9522 62.4662C60.0054 62.9374 60.1514 63.3936 60.382 63.8083C60.4918 64.0381 60.6728 64.2265 60.8983 64.3458C61.3251 64.5347 61.8053 64.2668 62.1994 64.0143C64.836 62.3168 67.637 60.8881 70.5601 59.75C71.2657 59.4752 71.9782 59.2177 72.6649 58.9C73.7078 58.4174 74.7439 57.7407 75.0502 56.5609C75.1388 56.253 75.1426 55.927 75.0611 55.6172C74.9797 55.3074 74.8159 55.0253 74.5873 54.8005C73.8404 54.1084 72.8026 54.3746 71.8767 54.5464Z" fill="#D80F61"/>
<path d="M70.1127 56.9512C70.1127 56.9512 66.6879 58.5861 62.8018 57.6501C63.3698 59.304 62.4887 61.4559 62.2976 61.8904C61.1721 61.7839 60.1773 62.3661 60.019 63.2643C59.8469 64.2191 60.697 65.1672 61.9121 65.3836C62.4349 65.4819 62.9754 65.4184 63.461 65.2015L63.7587 66.0104L62.7399 69.1876C62.7399 69.1876 64.2888 72.6121 67.5588 71.1128C68.1697 70.8311 69.4105 68.8235 69.4105 68.8235C69.2322 68.3961 69.0849 67.9565 68.9699 67.508C68.8385 67.0171 68.763 66.5131 68.7446 66.0053C69.7238 66.019 72.2691 64.5901 71.7666 61.6362C71.2641 58.6823 70.1127 56.9512 70.1127 56.9512Z" fill="#FEB8C0"/>
<path d="M67.5655 54.133C64.1753 53.9575 60.8064 54.7633 57.8641 56.4532L58.0362 56.7211L62.2046 61.9145C62.9782 61.0505 63.4709 59.9726 63.6175 58.8232C66.1387 59.2749 68.7344 59.0582 71.1452 58.1947C71.4894 58.0693 71.8629 57.913 72.0798 57.609C72.4601 57.0732 72.214 56.3072 71.7993 55.7971C70.8097 54.5881 69.1248 54.2171 67.5655 54.133Z" fill="#F98C8F"/>
<path d="M66.44 65.94C65.5175 65.6085 66.7515 67.4668 68.963 67.4977C68.8316 67.0068 68.756 66.5027 68.7376 65.995C68.7376 65.995 67.3607 66.2714 66.44 65.94Z" fill="#F98C8F"/>
<path d="M65.7379 59.3554C65.673 59.3355 65.6069 59.32 65.54 59.3091C65.4738 59.2988 65.4071 59.2919 65.3403 59.2884C65.2024 59.2824 65.0644 59.2969 64.9307 59.3314C64.7914 59.3661 64.6604 59.4279 64.5452 59.5134C64.4295 59.601 64.3299 59.7079 64.2509 59.8294V59.8397C64.2356 59.8612 64.225 59.8857 64.2196 59.9116C64.2142 59.9374 64.2142 59.9641 64.2196 59.9899C64.225 60.0157 64.2357 60.0401 64.251 60.0617C64.2662 60.0832 64.2857 60.1014 64.3083 60.1151C64.3309 60.1288 64.356 60.1377 64.3822 60.1413C64.4084 60.1448 64.4351 60.143 64.4605 60.1359C64.486 60.1287 64.5097 60.1164 64.5302 60.0997C64.5507 60.0831 64.5675 60.0624 64.5796 60.0389L64.5882 60.0235C64.6346 59.935 64.6964 59.8553 64.7706 59.7882C64.846 59.7199 64.9344 59.6673 65.0305 59.6337C65.1327 59.5985 65.2393 59.5783 65.3472 59.5735C65.4045 59.5689 65.462 59.5689 65.5193 59.5735C65.5737 59.577 65.6277 59.5845 65.6811 59.5958H65.6897C65.7204 59.602 65.7522 59.5966 65.7792 59.5807C65.8062 59.5649 65.8264 59.5397 65.8359 59.51C65.84 59.4934 65.8406 59.4762 65.8379 59.4593C65.8351 59.4425 65.829 59.4264 65.8198 59.4119C65.8106 59.3975 65.7987 59.3851 65.7846 59.3754C65.7705 59.3657 65.7546 59.3589 65.7379 59.3554Z" fill="#6B2E00"/>
<path d="M69.5258 57.8223C69.4603 57.8025 69.3936 57.787 69.3261 57.7759C69.26 57.7655 69.1933 57.7586 69.1265 57.7553C68.9891 57.7492 68.8516 57.7636 68.7186 57.7982C68.5793 57.8329 68.4483 57.8948 68.3331 57.9802C68.2174 58.0678 68.1178 58.1747 68.0388 58.2962L68.0302 58.3065C68.0078 58.3498 68.0027 58.4 68.0159 58.4469C68.0291 58.4938 68.0597 58.5339 68.1014 58.5592C68.1431 58.5845 68.1929 58.593 68.2407 58.5831C68.2885 58.5732 68.3307 58.5456 68.3589 58.5058L68.3675 58.4903C68.4151 58.4021 68.4774 58.3225 68.5517 58.255C68.6268 58.1864 68.7152 58.1338 68.8115 58.1005C68.913 58.0654 69.0191 58.0451 69.1265 58.0404C69.1837 58.0358 69.2413 58.0358 69.2986 58.0404C69.3524 58.044 69.4059 58.0514 69.4587 58.0627H69.469C69.5014 58.0709 69.5357 58.0659 69.5645 58.0488C69.5932 58.0318 69.6139 58.004 69.6221 57.9717C69.6303 57.9394 69.6253 57.905 69.6082 57.8763C69.5911 57.8477 69.5633 57.827 69.5309 57.8188L69.5258 57.8223Z" fill="#6B2E00"/>
<path d="M68.2797 60.7482C67.7514 60.5765 68.1076 62.0569 68.266 62.3351C68.4243 62.6133 68.6291 62.9447 69.197 62.5549C69.9663 62.0259 68.2797 60.7482 68.2797 60.7482Z" fill="#F98C8F"/>
<path d="M64.7258 61.8844C64.507 61.9253 64.3051 62.03 64.1458 62.1852C63.9864 62.3405 63.8767 62.5393 63.8305 62.7566C63.7842 62.974 63.8036 63.2002 63.886 63.4066C63.9684 63.613 64.1104 63.7904 64.2937 63.9165C64.4771 64.0425 64.6938 64.1116 64.9164 64.1149C65.1391 64.1182 65.3577 64.0556 65.5448 63.9351C65.7318 63.8145 65.879 63.6414 65.9675 63.4376C66.0561 63.2337 66.0821 63.0082 66.0424 62.7895C66.0159 62.6436 65.9607 62.5044 65.8801 62.3799C65.7995 62.2553 65.6951 62.1479 65.5727 62.0638C65.4504 61.9797 65.3125 61.9205 65.1672 61.8897C65.0219 61.8589 64.8719 61.8572 64.7258 61.8844Z" fill="#F7727C"/>
<path d="M66.4021 60.3637C66.3211 60.3068 66.2287 60.2679 66.1313 60.2499C66.0339 60.2318 65.9337 60.2349 65.8376 60.259C65.653 60.3142 65.4928 60.4305 65.3832 60.5887C65.278 60.731 65.2089 60.8966 65.1819 61.0713C65.2901 60.9478 65.405 60.8303 65.5261 60.7193C65.6326 60.6191 65.7602 60.544 65.8995 60.4994C66.0352 60.4666 66.1779 60.4792 66.3057 60.5355C66.4554 60.6011 66.5994 60.6793 66.7359 60.7691C66.6644 60.6057 66.5488 60.4654 66.4021 60.3637Z" fill="#6B2E00"/>
<path d="M69.4535 59.3364C69.2995 59.4526 69.1892 59.6171 69.1403 59.8035C69.0917 59.9739 69.0841 60.1534 69.1179 60.3273C69.1786 60.1737 69.2475 60.0235 69.3244 59.8773C69.3899 59.7471 69.4834 59.6327 69.5981 59.5424C69.7141 59.4646 69.8527 59.4272 69.9922 59.436C70.1558 59.4455 70.3182 59.4696 70.4775 59.5081C70.3526 59.3784 70.1941 59.2857 70.0197 59.2402C69.9239 59.2146 69.8238 59.2099 69.7261 59.2265C69.6284 59.2431 69.5353 59.2806 69.4535 59.3364Z" fill="#6B2E00"/>
<path d="M69.4156 63.6292C68.5792 63.8009 67.7772 63.4866 67.433 63.3252C67.4125 63.3146 67.3899 63.3089 67.3669 63.3086C67.3439 63.3083 67.3211 63.3134 67.3004 63.3234C67.2796 63.3334 67.2615 63.3481 67.2475 63.3663C67.2335 63.3845 67.2239 63.4057 67.2195 63.4283C67.1986 63.5715 67.1906 63.7164 67.1955 63.8611C67.1995 64.0927 67.2522 64.3209 67.3504 64.5308C67.55 64.931 68.8907 65.362 69.4156 64.3247C69.5017 64.1542 69.5598 63.9709 69.5877 63.782C69.5898 63.7597 69.5866 63.7372 69.5784 63.7164C69.5702 63.6956 69.5572 63.6769 69.5405 63.6621C69.5237 63.6472 69.5037 63.6364 69.482 63.6307C69.4603 63.625 69.4375 63.6245 69.4156 63.6292Z" fill="white"/>
<path d="M62.3215 63.1232C62.1564 62.9782 61.9443 62.8977 61.7244 62.8965C61.5153 62.896 61.3127 62.9697 61.153 63.1043C61.3353 63.065 61.5235 63.0615 61.7072 63.094C61.8744 63.1255 62.0297 63.2021 62.1563 63.3155C62.2912 63.4335 62.4073 63.5713 62.5005 63.7242C62.6003 63.8788 62.6881 64.0489 62.7897 64.2206C62.7894 64.0201 62.7515 63.8215 62.6778 63.6349C62.6025 63.438 62.4802 63.2624 62.3215 63.1232Z" fill="#F98C8F"/>
<path d="M61.8879 63.3175C61.8294 63.342 61.7763 63.3777 61.7314 63.4223C61.6864 63.4723 61.6518 63.5307 61.6298 63.5941C61.5892 63.7103 61.5892 63.8368 61.6298 63.953C61.6648 64.0614 61.732 64.1566 61.8225 64.226C61.8225 64.1127 61.8225 64.0148 61.8225 63.922C61.8242 63.8392 61.8381 63.757 61.8639 63.6782C61.8898 63.6069 61.9322 63.5428 61.9877 63.491C62.0622 63.4253 62.1403 63.3639 62.2218 63.3072C62.1126 63.272 61.9947 63.2756 61.8879 63.3175Z" fill="#F98C8F"/>
<g opacity="0.5">
<path opacity="0.5" d="M76.6526 77.5773L76.7162 77.5893C76.73 77.3609 76.7404 77.2321 76.7404 77.2321L82.3234 75.1558C82.4232 74.9985 82.5118 74.8344 82.5884 74.6646L76.5648 73.6016L76.6526 77.5773Z" fill="black"/>
</g>
<path d="M152.954 116.744C152.954 116.744 132.341 115.73 131.326 115.73C130.31 115.73 121.883 117.352 121.883 117.352L118.938 129.717C118.938 129.717 124.617 124.05 129.904 125.157C135.191 126.265 142.624 130.426 150.125 126.778C157.625 123.131 158.716 118.545 158.12 117.743C157.525 116.941 152.954 116.744 152.954 116.744Z" fill="#190066"/>
<path d="M148.423 113.137L138.604 121.791C138.604 121.791 140.564 126.256 142.635 130.999C144.802 135.959 147.087 141.226 147.373 142.013C147.932 143.547 144.447 149.425 146.302 149.046C148.158 148.666 157.811 141.235 158.026 140.102C158.141 139.495 155.403 131.858 152.821 124.877C150.562 118.763 148.423 113.137 148.423 113.137Z" fill="#FEB8C0"/>
<path d="M150.278 110.257C147.918 108.673 145.139 107.799 142.332 107.337C140.298 107.011 138.029 106.951 136.389 108.196L131.915 119.639L139.243 124.42C140.542 125.268 141.933 126.137 143.483 126.177C144.776 126.204 145.998 125.636 147.151 125.054C149.233 124.003 151.266 122.858 153.248 121.619C153.973 121.169 154.72 120.676 155.129 119.927C155.627 119.024 155.536 117.909 155.274 116.912C154.556 114.183 152.639 111.84 150.278 110.257Z" fill="#F98C8F"/>
<path d="M152.821 124.879C150.799 125.165 148.855 125.854 147.105 126.906C145.355 127.958 143.834 129.35 142.635 131C144.802 135.963 147.087 141.229 147.373 142.015C147.93 143.545 144.461 149.4 146.29 149.056H146.302C148.159 148.677 157.811 141.246 158.026 140.111C158.05 139.987 157.954 139.566 157.761 138.908C157.021 136.386 154.871 130.43 152.821 124.879Z" fill="#B11E28"/>
<path d="M146.29 149.05H146.302C148.159 148.671 157.811 141.24 158.026 140.105C158.05 139.981 157.954 139.56 157.761 138.902C153.401 139.998 148.429 146.155 146.29 149.05Z" fill="#870B17"/>
<path d="M146.342 133.951L143.763 135.267C143.701 135.299 143.677 135.374 143.709 135.436L143.872 135.754C143.903 135.816 143.979 135.84 144.041 135.808L146.619 134.492C146.681 134.461 146.706 134.385 146.674 134.323L146.511 134.005C146.479 133.944 146.404 133.919 146.342 133.951Z" fill="white"/>
<path d="M146.65 133.873C146.635 133.843 146.614 133.817 146.588 133.795C146.562 133.773 146.533 133.757 146.501 133.746C146.469 133.736 146.435 133.732 146.401 133.735C146.368 133.738 146.335 133.748 146.306 133.763L143.724 135.079C143.694 135.094 143.668 135.115 143.646 135.14C143.624 135.166 143.608 135.195 143.597 135.227C143.587 135.259 143.583 135.293 143.586 135.326C143.589 135.36 143.598 135.392 143.614 135.422L143.776 135.738C143.791 135.768 143.812 135.794 143.837 135.816C143.862 135.837 143.892 135.853 143.924 135.863C143.949 135.871 143.975 135.876 144.001 135.875C144.041 135.876 144.081 135.866 144.116 135.848L146.698 134.532C146.728 134.517 146.755 134.497 146.777 134.471C146.799 134.446 146.816 134.416 146.826 134.384C146.836 134.352 146.84 134.318 146.837 134.285C146.834 134.251 146.824 134.219 146.808 134.189L146.65 133.873ZM144.005 135.621L143.841 135.303L146.423 133.988L146.585 134.304L144.005 135.621ZM146.586 134.304L146.643 134.417L146.586 134.304Z" fill="white"/>
<path d="M147.317 135.834L144.738 137.15C144.676 137.181 144.652 137.257 144.683 137.319L144.846 137.637C144.878 137.698 144.954 137.723 145.016 137.691L147.594 136.375C147.656 136.343 147.68 136.268 147.649 136.206L147.486 135.888C147.454 135.827 147.379 135.802 147.317 135.834Z" fill="white"/>
<path d="M147.619 135.767C147.604 135.737 147.583 135.711 147.558 135.689C147.532 135.667 147.503 135.651 147.471 135.641C147.44 135.631 147.407 135.627 147.374 135.63C147.341 135.632 147.309 135.642 147.28 135.657L144.698 136.972C144.638 137.003 144.593 137.056 144.573 137.12C144.562 137.151 144.558 137.185 144.561 137.218C144.564 137.251 144.573 137.283 144.588 137.312L144.752 137.628C144.772 137.67 144.804 137.704 144.844 137.729C144.883 137.753 144.929 137.766 144.975 137.766C145.015 137.766 145.055 137.756 145.091 137.738L147.672 136.423C147.702 136.407 147.729 136.386 147.75 136.361C147.772 136.335 147.789 136.306 147.799 136.274C147.809 136.242 147.812 136.208 147.809 136.175C147.806 136.141 147.796 136.109 147.781 136.079L147.619 135.767ZM144.979 137.515L144.817 137.197L147.399 135.882L147.562 136.198L144.979 137.515ZM147.56 136.198L147.617 136.311L147.56 136.198Z" fill="white"/>
<path d="M148.288 137.728L145.71 139.044C145.648 139.076 145.623 139.152 145.655 139.213L145.818 139.531C145.849 139.593 145.925 139.617 145.987 139.586L148.566 138.269C148.627 138.238 148.652 138.162 148.62 138.101L148.457 137.783C148.426 137.721 148.35 137.697 148.288 137.728Z" fill="white"/>
<path d="M148.591 137.667C148.576 137.637 148.555 137.61 148.53 137.588C148.504 137.566 148.475 137.55 148.442 137.539C148.41 137.529 148.376 137.525 148.343 137.528C148.309 137.531 148.277 137.541 148.247 137.557L145.665 138.873C145.636 138.888 145.609 138.909 145.587 138.934C145.565 138.96 145.549 138.99 145.539 139.022C145.529 139.053 145.525 139.087 145.528 139.12C145.53 139.154 145.54 139.186 145.555 139.216L145.719 139.532C145.734 139.562 145.754 139.588 145.779 139.609C145.804 139.631 145.834 139.647 145.865 139.658C145.929 139.678 145.998 139.672 146.058 139.642L148.639 138.327C148.699 138.295 148.745 138.242 148.765 138.177C148.786 138.113 148.78 138.043 148.749 137.983L148.591 137.667ZM145.951 139.415L145.789 139.098L148.371 137.782L148.533 138.1L145.951 139.415ZM148.533 138.098L148.589 138.211L148.533 138.098Z" fill="white"/>
<path d="M121.478 132.753C121.143 138.154 120.774 143.881 120.669 144.711C120.466 146.33 114.679 149.978 116.506 150.486C118.334 150.995 130.316 148.769 131.026 147.85C131.405 147.364 132.448 139.327 133.341 131.932C134.119 125.46 134.783 119.48 134.783 119.48L122.091 122.728C122.091 122.728 121.803 127.588 121.478 132.753Z" fill="#FEB8C0"/>
<path d="M135.458 110.421C128.183 108.704 119.979 112.327 116.363 118.855L119.633 128.96C121.891 128.521 123.574 126.645 125.684 125.728C128.663 124.433 132.185 125.161 135.248 124.083C138.398 122.977 140.726 119.856 140.888 116.526C140.938 115.496 140.79 114.438 140.306 113.528C139.37 111.785 137.384 110.876 135.458 110.421Z" fill="#F98C8F"/>
<path d="M121.478 132.752C121.143 138.153 120.774 143.881 120.669 144.71C120.466 146.33 114.679 149.978 116.506 150.486C118.334 150.994 130.316 148.769 131.026 147.85C131.405 147.364 132.448 139.326 133.341 131.931C131.41 131.267 129.364 130.997 127.326 131.138C125.288 131.279 123.299 131.828 121.478 132.752Z" fill="#B11E28"/>
<path d="M123.488 137.008H120.592C120.523 137.008 120.466 137.064 120.466 137.133V137.49C120.466 137.56 120.523 137.616 120.592 137.616H123.488C123.558 137.616 123.614 137.56 123.614 137.49V137.133C123.614 137.064 123.558 137.008 123.488 137.008Z" fill="white"/>
<path d="M123.488 136.883H120.599C120.532 136.883 120.468 136.91 120.421 136.957C120.374 137.005 120.348 137.069 120.348 137.135V137.498C120.348 137.564 120.374 137.628 120.421 137.676C120.468 137.723 120.532 137.75 120.599 137.75H123.495C123.528 137.75 123.561 137.744 123.592 137.731C123.622 137.718 123.65 137.7 123.674 137.676C123.697 137.653 123.715 137.625 123.728 137.594C123.74 137.564 123.747 137.531 123.747 137.498V137.142C123.748 137.108 123.742 137.074 123.729 137.042C123.717 137.01 123.698 136.981 123.674 136.957C123.649 136.933 123.621 136.913 123.589 136.901C123.557 136.888 123.523 136.882 123.488 136.883ZM123.488 137.491H120.599V137.135H123.495L123.488 137.491Z" fill="white"/>
<path d="M123.488 139.133H120.592C120.523 139.133 120.466 139.189 120.466 139.258V139.615C120.466 139.685 120.523 139.741 120.592 139.741H123.488C123.558 139.741 123.614 139.685 123.614 139.615V139.258C123.614 139.189 123.558 139.133 123.488 139.133Z" fill="white"/>
<path d="M123.488 139.008H120.599C120.532 139.008 120.468 139.035 120.421 139.082C120.374 139.13 120.348 139.194 120.348 139.26V139.616C120.348 139.683 120.374 139.746 120.421 139.794C120.468 139.841 120.532 139.868 120.599 139.868H123.495C123.528 139.868 123.561 139.862 123.592 139.849C123.622 139.836 123.65 139.818 123.674 139.794C123.697 139.771 123.715 139.743 123.728 139.712C123.74 139.682 123.747 139.649 123.747 139.616V139.26C123.747 139.227 123.74 139.193 123.727 139.162C123.714 139.131 123.695 139.103 123.671 139.079C123.647 139.056 123.618 139.037 123.587 139.025C123.556 139.013 123.522 139.007 123.488 139.008ZM123.488 139.616H120.599V139.26H123.495L123.488 139.616Z" fill="white"/>
<path d="M123.488 141.262H120.592C120.523 141.262 120.466 141.318 120.466 141.387V141.744C120.466 141.814 120.523 141.87 120.592 141.87H123.488C123.558 141.87 123.614 141.814 123.614 141.744V141.387C123.614 141.318 123.558 141.262 123.488 141.262Z" fill="white"/>
<path d="M123.488 141.137H120.599C120.532 141.137 120.468 141.164 120.421 141.211C120.374 141.259 120.348 141.323 120.348 141.389V141.745C120.348 141.811 120.374 141.875 120.421 141.923C120.468 141.97 120.532 141.997 120.599 141.997H123.495C123.528 141.997 123.561 141.991 123.592 141.978C123.622 141.965 123.65 141.947 123.674 141.923C123.697 141.9 123.715 141.872 123.728 141.841C123.74 141.811 123.747 141.778 123.747 141.745V141.389C123.747 141.356 123.74 141.322 123.727 141.291C123.714 141.26 123.695 141.232 123.671 141.208C123.647 141.185 123.618 141.166 123.587 141.154C123.556 141.142 123.522 141.136 123.488 141.137ZM123.488 141.745H120.599V141.389H123.495L123.488 141.745Z" fill="white"/>
<path d="M144.683 82.9001L130.976 80.6211C130.976 80.6211 125.036 87.0046 122.752 100.371C120.468 113.738 118.943 129.706 118.943 129.706C118.943 129.706 126.732 121.923 132.346 122.106C138.542 122.309 144.762 125.146 150.13 123.48C155.319 121.864 157.58 117.265 158.367 118.06C154.783 113.303 147.421 103.011 146.082 95.3632C144.734 87.6624 144.683 82.9001 144.683 82.9001Z" fill="#F61D6B"/>
<path d="M158.367 118.059C158.391 118.093 158.416 118.127 158.442 118.16C158.421 118.123 158.395 118.089 158.367 118.059Z" fill="#F61D6B"/>
<path d="M144.509 128.097C142.174 127.485 131.639 111.266 129.947 99.8594C126.849 110.657 129.292 122.386 129.292 122.386L117.035 132.136C117.035 132.136 146.843 128.708 144.509 128.097Z" fill="#CC125E"/>
<path d="M149.331 124.877L153.56 123.546L146.543 116.664L149.331 124.877Z" fill="#CC125E"/>
<path d="M151.545 80.6214L138.282 73.5801C138.282 73.5801 126.287 82.155 127.598 82.8042C127.598 82.8042 135.759 86.9431 142.254 89.016C142.943 93.1996 144.6 98.9769 148.316 106.399C157.045 123.84 163.442 127.944 163.442 127.944L170.601 121.432L151.233 86.2596C151.901 83.6303 151.545 80.6214 151.545 80.6214Z" fill="#CC125E"/>
<path d="M147.801 47.6946C147.819 47.6609 147.835 47.6259 147.847 47.5898L147.801 47.6946Z" fill="#FEB8C0"/>
<path d="M151.03 45.8033C150.224 45.8771 150.152 45.2881 149.274 45.8033C148.397 46.3185 148.14 46.3546 147.627 46.4268C147.115 46.4989 146.86 47.7045 147.263 47.9226C147.548 48.0789 147.724 47.847 147.801 47.6993L147.848 47.5946C147.835 47.6306 147.819 47.6656 147.801 47.6993C147.596 48.1784 146.836 50.1569 147.958 50.7339C149.237 51.39 151.359 50.7339 151.359 50.7339C151.359 50.7339 152.391 48.5803 152.491 47.8504C152.591 47.1205 151.834 45.7311 151.03 45.8033Z" fill="#FEB8C0"/>
<path d="M150.309 48.0195C150.223 48.0489 150.139 48.0839 150.057 48.1243C150.133 48.1655 150.212 48.2033 150.297 48.2393L150.309 48.0195Z" fill="#F98C8F"/>
<path d="M149.34 47.2973C149.341 47.3058 149.341 47.3145 149.34 47.323L149.352 47.3145C149.352 47.3145 149.34 47.2938 149.34 47.2973Z" fill="#F98C8F"/>
<path d="M149.617 47.2262C149.763 47.2005 149.916 47.1816 150.07 47.1679C150.223 47.1541 150.378 47.1421 150.533 47.1318L151.469 47.0802C151.158 47.0316 150.845 47.0001 150.531 46.9858C150.374 46.9858 150.218 46.9738 150.059 46.9858C149.899 46.9851 149.739 46.9955 149.581 47.0168C149.496 47.0276 149.413 47.0454 149.331 47.07C149.282 47.0852 149.236 47.1077 149.194 47.1369C149.163 47.1576 149.138 47.1853 149.121 47.2177C149.098 47.2602 149.091 47.3094 149.101 47.3568C149.109 47.3919 149.124 47.4251 149.145 47.4547L149.173 47.4873L149.187 47.5028L149.197 47.513L149.285 47.5972L149.376 47.6779L149.469 47.757C149.595 47.8571 149.728 47.9483 149.866 48.03C149.93 48.0678 149.992 48.1056 150.057 48.1399C150.139 48.0996 150.223 48.0645 150.309 48.0351L150.297 48.255C150.212 48.2189 150.125 48.1812 150.057 48.1399C149.974 48.1789 149.894 48.2236 149.817 48.2739C149.658 48.3728 149.517 48.4976 149.4 48.6431C149.343 48.7191 149.296 48.8022 149.261 48.8904C149.229 48.9796 149.212 49.0738 149.212 49.1686C149.213 49.2153 149.218 49.2618 149.226 49.3077C149.236 49.3525 149.249 49.3967 149.264 49.44C149.296 49.5235 149.338 49.6026 149.39 49.6753C149.319 49.5187 149.291 49.3464 149.307 49.1755C149.332 49.013 149.408 48.8626 149.524 48.7461C149.64 48.6269 149.775 48.5271 149.923 48.4507C150.07 48.3703 150.225 48.3047 150.384 48.255L150.67 48.1691L150.397 48.0351C150.125 47.9031 149.869 47.7431 149.631 47.5577L149.543 47.4873L149.459 47.4135L149.376 47.3362L149.367 47.3276L149.355 47.3362C149.357 47.3277 149.357 47.3189 149.355 47.3104C149.374 47.298 149.394 47.2882 149.416 47.2812C149.481 47.2567 149.548 47.2383 149.617 47.2262Z" fill="#F98C8F"/>
<path d="M148.281 48.2385C148.247 48.2369 148.215 48.2242 148.189 48.2024C148.16 48.1746 148.139 48.1405 148.127 48.1028C148.096 47.9985 148.082 47.8902 148.085 47.7816C148.085 47.548 148.116 47.3059 148.14 47.0586C148.014 47.2772 147.929 47.517 147.889 47.7662C147.879 47.8315 147.873 47.8975 147.874 47.9637C147.873 48.0338 147.882 48.1036 147.899 48.1715C147.919 48.2521 147.961 48.3258 148.02 48.3845C148.086 48.445 148.17 48.4819 148.259 48.4892C148.335 48.494 148.411 48.4865 148.484 48.4669C148.554 48.4464 148.62 48.4157 148.681 48.3758C148.792 48.3003 148.89 48.2063 148.97 48.0977C149.119 47.8927 149.223 47.6586 149.275 47.4107C149.138 47.6092 148.985 47.7964 148.818 47.9705C148.753 48.0503 148.671 48.1154 148.579 48.1616C148.486 48.2077 148.385 48.2339 148.281 48.2385Z" fill="#F98C8F"/>
<path d="M142.17 40.9899C141.599 40.9521 140.876 41.5979 140.305 41.7868C139.733 41.9757 138.401 42.8515 138.363 43.2689C138.325 43.6862 137.905 45.5873 138.744 46.3464C139.582 47.1055 142.55 45.9669 142.55 45.9669C142.55 45.9669 143.617 44.9038 143.809 44.0297C144 43.1555 143.655 42.9649 143.58 42.5476C143.504 42.1303 142.741 41.0277 142.17 40.9899Z" fill="#FEB8C0"/>
<path d="M142.939 43.6296C142.91 43.5986 142.883 43.5712 142.853 43.5437C142.824 43.5162 142.795 43.4922 142.771 43.4612C142.719 43.4069 142.671 43.3495 142.626 43.2895C142.583 43.2306 142.544 43.1686 142.509 43.104C142.444 42.9739 142.402 42.8331 142.387 42.6884C142.37 42.5294 142.374 42.3689 142.399 42.2109C142.28 42.3424 142.206 42.5086 142.189 42.685C142.169 42.8684 142.201 43.0538 142.284 43.2191C142.37 43.3782 142.493 43.5143 142.643 43.6158C142.661 43.6288 142.679 43.6403 142.698 43.6501L142.757 43.681L142.874 43.7377C142.955 43.7653 143.038 43.7871 143.122 43.803C143.065 43.7415 143.004 43.6836 142.939 43.6296Z" fill="#F98C8F"/>
<path d="M147.275 50.4771C147.275 50.4771 147.536 58.0525 147.275 62.0369C147.211 63.0141 147.115 63.7749 146.973 64.1561C146.263 66.0796 144.841 68.1061 144.841 68.1061C144.841 68.1061 144.049 68.4634 143.368 66.8748C142.901 65.7945 142.487 63.8127 142.404 60.2027C142.201 51.2843 143.623 45.5104 143.623 45.5104C143.623 45.5104 140.576 43.9905 138.038 46.0153C135.499 48.0401 134.281 59.1877 134.179 62.8355C134.078 66.4832 134.179 70.0297 134.179 70.0297L128.894 81.6804C128.894 81.6804 133.861 85.1547 139.564 86.1817C142.294 86.6763 145.189 86.6076 147.787 85.323C148.232 79.1747 150.818 73.7821 152.357 69.4268C152.923 67.8245 153.348 66.3647 153.474 65.0595C153.935 60.2045 152.56 49.9601 152.56 49.9601L147.275 50.4771Z" fill="#190066"/>
<path d="M147.275 62.0371C147.211 63.0143 147.115 63.7751 146.973 64.1563C146.263 66.0798 144.841 68.1063 144.841 68.1063C144.841 68.1063 144.049 68.4636 143.368 66.875C140.54 72.6592 137.892 79.1733 139.563 86.1837C142.292 86.6783 145.187 86.6096 147.786 85.325C148.23 79.1767 150.816 73.7841 152.355 69.4288C152.426 67.4538 152.159 65.4993 150.903 64.0361C149.977 62.9713 148.663 62.36 147.275 62.0371Z" fill="#0B0038"/>
<path d="M146.082 68.1066C147.876 68.1066 149.331 66.3373 149.331 64.1548C149.331 61.9724 147.876 60.2031 146.082 60.2031C144.287 60.2031 142.833 61.9724 142.833 64.1548C142.833 66.3373 144.287 68.1066 146.082 68.1066Z" fill="#FEB8C0"/>
<path d="M152.858 59.0892C148.491 55.3401 144.734 60.1024 144.734 60.1024L144.024 60.609L145.141 62.3264C145.141 62.3264 144.125 65.5689 142.297 72.6514C140.47 79.7339 144.43 87.9619 144.734 87.6579C145.039 87.354 150.014 85.5302 150.014 85.5302L149.608 83.2975L150.928 85.5302L155.193 84.6182L154.888 82.9008L155.701 84.6182L158.442 83.8076C158.442 83.8076 156.919 76.9174 155.904 72.8644C154.888 68.8113 157.224 62.8383 152.858 59.0892Z" fill="#3C5CC9"/>
<path d="M152.415 61.9754C152.415 61.9582 152.415 61.9394 152.415 61.9205L152.384 61.9102L152.415 61.9754Z" fill="#2B4CAA"/>
<path d="M152.408 61.9211C152.408 61.9399 152.408 61.9588 152.408 61.976L152.371 61.9107L152.402 61.9211C152.331 61.4128 152.094 60.9422 151.727 60.5832C151.359 60.2242 150.883 59.997 150.372 59.9375L150.966 62.2078C150.772 62.071 150.545 61.9879 150.308 61.9671C150.072 61.9463 149.834 61.9885 149.619 62.0894C149.916 62.1113 150.21 62.169 150.493 62.2611C150.703 62.3177 150.896 62.4217 151.059 62.5651C151.174 62.6889 151.261 62.836 151.314 62.9963C151.367 63.1566 151.385 63.3264 151.367 63.4942C151.329 63.829 151.242 64.1563 151.109 64.4662C151.281 64.4607 151.45 64.4135 151.6 64.3285C151.75 64.2435 151.877 64.1234 151.97 63.9785C152.15 63.6884 152.282 63.3712 152.36 63.0391L153.174 63.3053C153.209 63.3213 153.247 63.3296 153.285 63.3296C153.324 63.3296 153.361 63.3213 153.396 63.3053C153.475 63.252 153.472 63.1335 153.451 63.0442C153.387 62.7842 153.258 62.5446 153.075 62.3481C152.893 62.1517 152.663 62.0047 152.408 61.9211Z" fill="#2B4CAA"/>
<path d="M145.141 62.331L143.705 56.1055L140.535 65.7229C140.535 65.7229 136.382 74.0419 137.129 74.6533C137.876 75.2647 144.302 91.7774 144.302 91.7774L148.584 88.231C148.584 88.231 143.593 80.6315 143.163 75.6202C142.733 70.6088 145.141 62.331 145.141 62.331Z" fill="#2B4CAA"/>
<path d="M149.784 87.2082L153.562 85.7897L149.216 81.0273L149.784 87.2082Z" fill="#2B4CAA"/>
</g>
<defs>
<clipPath id="clip0_2623_3956">
<rect width="198" height="151" fill="white"/>
</clipPath>
</defs>
</svg>
