<svg width="50" height="50" viewBox="0 0 50 50" fill="none" xmlns="http://www.w3.org/2000/svg">
<path d="M26.8856 6.09666C27.1231 6.43601 27.5907 6.51854 27.9301 6.28101C28.2694 6.04348 28.352 5.57584 28.1144 5.23649L26.8856 6.09666ZM8 12.1666L7.25487 12.0813C7.25162 12.1096 7.25 12.1381 7.25 12.1666H8ZM14.9967 12.5662L15.7421 12.4834C15.6982 12.0878 15.3527 11.7954 14.9553 11.8174C14.5578 11.8394 14.2467 12.1681 14.2467 12.5662H14.9967ZM22.4967 12.5662L23.2421 12.4834C23.1982 12.0878 22.8527 11.7954 22.4553 11.8174C22.0578 11.8394 21.7467 12.1681 21.7467 12.5662H22.4967ZM29.9967 12.5662L30.7421 12.4834C30.7005 12.1088 30.3873 11.8232 30.0104 11.8164L29.9967 12.5662ZM28.1144 5.23649C27.1201 3.81591 25.4015 2.70248 23.4327 2.02137C21.4521 1.33618 19.144 1.06137 16.8931 1.3856C14.638 1.71042 12.4177 2.6409 10.6589 4.38795C8.89578 6.13941 7.64626 8.66238 7.25487 12.0813L8.74513 12.2519C9.10374 9.11941 10.2292 6.92911 11.7161 5.45214C13.2073 3.97076 15.112 3.15762 17.1069 2.87027C19.106 2.58233 21.1729 2.82679 22.9423 3.43894C24.7235 4.05517 26.1299 5.01715 26.8856 6.09666L28.1144 5.23649ZM7.25 12.1666C7.25 13.0505 7.37909 14.4075 7.95148 15.5722C8.24191 16.1632 8.65892 16.7298 9.25486 17.1487C9.85808 17.5726 10.6041 17.8162 11.4967 17.8162V16.3162C10.891 16.3162 10.4507 16.1557 10.1174 15.9214C9.77674 15.682 9.50686 15.3362 9.2977 14.9106C8.87091 14.0422 8.75 12.9494 8.75 12.1666H7.25ZM11.4967 17.8162C13.3898 17.8162 14.5537 16.8989 15.1722 15.7294C15.7592 14.6196 15.8364 13.3315 15.7421 12.4834L14.2513 12.6491C14.3238 13.301 14.2509 14.2629 13.8462 15.0281C13.4731 15.7336 12.8037 16.3162 11.4967 16.3162V17.8162ZM14.2467 12.5662C14.2467 13.4198 14.4688 14.6952 15.165 15.783C15.8871 16.9113 17.113 17.8162 18.9967 17.8162V16.3162C17.6804 16.3162 16.9064 15.7212 16.4284 14.9744C15.9246 14.1872 15.7467 13.2127 15.7467 12.5662H14.2467ZM18.9967 17.8162C20.8898 17.8162 22.0537 16.8989 22.6722 15.7294C23.2592 14.6196 23.3364 13.3315 23.2421 12.4834L21.7513 12.6491C21.8238 13.301 21.7509 14.2629 21.3462 15.0281C20.9731 15.7336 20.3037 16.3162 18.9967 16.3162V17.8162ZM21.7467 12.5662C21.7467 13.4198 21.9688 14.6952 22.665 15.783C23.3871 16.9113 24.613 17.8162 26.4967 17.8162V16.3162C25.1804 16.3162 24.4064 15.7212 23.9284 14.9744C23.4246 14.1872 23.2467 13.2127 23.2467 12.5662H21.7467ZM26.4967 17.8162C28.3898 17.8162 29.5537 16.8989 30.1722 15.7294C30.7592 14.6196 30.8364 13.3315 30.7421 12.4834L29.2513 12.6491C29.3238 13.301 29.2509 14.2629 28.8463 15.0281C28.4731 15.7336 27.8037 16.3162 26.4967 16.3162V17.8162ZM30.0104 11.8164L8.01362 11.4167L7.98638 12.9165L29.9831 13.3161L30.0104 11.8164Z" fill="#0F1B2B"/>
<path d="M19 2.1665L19.5762 1.68637C19.4413 1.52449 19.2445 1.42682 19.034 1.41727C18.8235 1.40773 18.6187 1.48717 18.4697 1.63617L19 2.1665ZM15 12.1665H14.25V12.9165H15V12.1665ZM22.5 12.1665V12.9165H23.25V12.1665H22.5ZM18.4697 1.63617C17.1223 2.98357 16.0733 4.83589 15.3613 6.71301C14.6489 8.59094 14.25 10.5568 14.25 12.1665H15.75C15.75 10.7762 16.1011 8.99206 16.7637 7.24499C17.4267 5.49712 18.3777 3.84944 19.5303 2.69683L18.4697 1.63617ZM15 12.9165H22.5V11.4165H15V12.9165ZM23.25 12.1665C23.25 9.03167 22.212 4.84937 19.5762 1.68637L18.4238 2.64664C20.788 5.48364 21.75 9.30134 21.75 12.1665H23.25Z" fill="#0F1B2B"/>
<path d="M28.5 7.1665C29 8.1665 30 10.6665 30 12.6665" stroke="#0F1B2B" stroke-width="1.5" stroke-linecap="round"/>
<path d="M19 17.0635V24.0635H15.5H30V27.0635H8V24.0635H12" stroke="#0F1B2B" stroke-width="1.5" stroke-linecap="round" stroke-linejoin="round"/>
<path d="M15 23.3135C14.5858 23.3135 14.25 23.6493 14.25 24.0635C14.25 24.4777 14.5858 24.8135 15 24.8135V23.3135ZM15.5 23.3135H15V24.8135H15.5V23.3135Z" fill="#0F1B2B"/>
<circle cx="14.5" cy="41.5635" r="4.5" stroke="#0F1B2B" stroke-width="1.5"/>
<circle cx="14.5" cy="41.5635" r="1.5" stroke="#0F1B2B" stroke-width="1.5"/>
<path fill-rule="evenodd" clip-rule="evenodd" d="M10.0127 26.5635C9.73655 26.5635 9.5127 26.7873 9.5127 27.0635V42.0635C9.5127 42.3396 9.73655 42.5635 10.0127 42.5635H10.1271C10.0522 42.2419 10.0127 41.9072 10.0127 41.5635C10.0127 40.8297 10.193 40.1369 10.5127 39.5249V27.5635H27.9864V41.5635H19.2495C19.2495 41.9072 19.21 42.2419 19.1351 42.5635H28.4864C28.7625 42.5635 28.9864 42.3396 28.9864 42.0635V27.0635C28.9864 26.7873 28.7625 26.5635 28.4864 26.5635H10.0127Z" fill="#0F1B2B"/>
<path d="M28.5 35.5635L34.5 25.5635H38M38 25.5635V27.0635H42V24.0635H38V25.5635Z" stroke="#0F1B2B" stroke-width="1.5" stroke-linejoin="round"/>
<path d="M28 31.0635H31.5V44.5635" stroke="#0F1B2B" stroke-width="1.5"/>
<path d="M32.75 46.0635C32.75 46.7538 32.1904 47.3135 31.5 47.3135C30.8096 47.3135 30.25 46.7538 30.25 46.0635C30.25 45.3731 30.8096 44.8135 31.5 44.8135C32.1904 44.8135 32.75 45.3731 32.75 46.0635Z" stroke="#0F1B2B" stroke-width="1.5"/>
</svg>
