<svg width="26" height="26" viewBox="0 0 26 26" fill="none" xmlns="http://www.w3.org/2000/svg">
<circle r="12.2222" transform="matrix(1 0 0 -1 13.2222 13.2231)" stroke="#F7C12B"/>
<path d="M7.10445 12.9961C7.10445 16.4999 9.94456 19.34 13.4484 19.34C16.9522 19.34 19.7923 16.4999 19.7923 12.9961H7.10445Z" stroke="#F7C12B" stroke-miterlimit="10" stroke-linecap="round" stroke-linejoin="round"/>
<path d="M6.78459 10.3711L8.31589 11.9024" stroke="#F7C12B" stroke-miterlimit="10" stroke-linecap="round" stroke-linejoin="round"/>
<path d="M11.2366 6.73633C11.2575 6.99078 11.3675 7.22971 11.5473 7.41097C11.7523 7.61609 11.8675 7.89425 11.8675 8.18428C11.8675 8.47431 11.7523 8.75247 11.5473 8.95758C11.3422 9.1627 11.227 9.44085 11.227 9.73088C11.227 10.0209 11.3422 10.2991 11.5473 10.5042" stroke="#F7C12B" stroke-miterlimit="10" stroke-linecap="round" stroke-linejoin="round"/>
<path d="M13.1356 6.66016C13.1137 6.96598 13.2148 7.27836 13.4484 7.51199C13.6535 7.71711 13.7687 7.99527 13.7687 8.2853C13.7687 8.57533 13.6535 8.85349 13.4484 9.0586C13.2434 9.26372 13.1282 9.54187 13.1282 9.83191C13.1282 10.1219 13.2434 10.4001 13.4484 10.6052C13.2434 10.4001 13.1282 10.1219 13.1282 9.83191C13.1282 9.54187 13.2434 9.26372 13.4484 9.0586C13.6535 8.85349 13.7687 8.57533 13.7687 8.2853C13.7687 7.99527 13.6535 7.71711 13.4484 7.51199C13.2148 7.27836 13.1137 6.96598 13.1356 6.66016Z" stroke="#F7C12B" stroke-miterlimit="10" stroke-linecap="round" stroke-linejoin="round"/>
<path d="M14.8639 6.73633C14.86 6.88394 14.8861 7.03081 14.9408 7.16798C14.9955 7.30514 15.0776 7.42973 15.182 7.53413C15.3871 7.73925 15.5022 8.0174 15.5022 8.30744C15.5022 8.59747 15.3871 8.87563 15.182 9.08074C14.9769 9.28585 14.8618 9.56401 14.8618 9.85404C14.8618 10.1441 14.9769 10.4222 15.182 10.6273C14.9769 10.4222 14.8618 10.1441 14.8618 9.85404C14.8618 9.56401 14.9769 9.28585 15.182 9.08074C15.3871 8.87563 15.5022 8.59747 15.5022 8.30744C15.5022 8.0174 15.3871 7.73925 15.182 7.53413C15.0776 7.42971 14.9956 7.30512 14.9409 7.16795C14.8863 7.03079 14.8602 6.88393 14.8641 6.73633" stroke="#F7C12B" stroke-miterlimit="10" stroke-linecap="round" stroke-linejoin="round"/>
</svg>
