<svg width="30" height="28" viewBox="0 0 30 28" fill="none" xmlns="http://www.w3.org/2000/svg">
<path d="M11.573 8.85453C11.4123 8.87134 11.2797 9.03106 11.2966 9.19358C11.3135 9.3533 11.4743 9.485 11.6379 9.46819C12.0554 9.46819 12.7154 9.4794 13.0341 9.47099C14.4528 9.42896 15.6402 10.5274 15.7982 11.9705C14.3992 11.9705 12.9946 11.9705 11.5984 11.9705C11.4377 11.9817 11.2994 12.1358 11.3107 12.2955C11.322 12.4552 11.4771 12.5925 11.6379 12.5813H15.8123C15.6769 13.9543 14.5797 15.0612 13.2174 15.0948C12.6392 15.1088 12.0751 15.0948 11.573 15.0948C11.4123 15.1116 11.2797 15.2713 11.2966 15.4338C11.3135 15.5936 11.4743 15.7252 11.6379 15.7084H12.9495L15.8518 21.7694C15.9138 21.9263 16.1226 22.0075 16.2749 21.9319C16.4272 21.859 16.492 21.6461 16.4046 21.5004L13.6038 15.6804C15.1128 15.4535 16.2749 14.1589 16.4046 12.5785H17.6259C17.7895 12.5813 17.939 12.4328 17.939 12.2731C17.939 12.1106 17.7895 11.9649 17.6259 11.9677H16.4046C16.3115 10.9281 15.7813 10.0286 15.0056 9.46538H17.6259C17.7895 9.46819 17.939 9.31968 17.939 9.15996C17.939 8.99744 17.7895 8.85173 17.6259 8.85453C15.6092 8.85453 13.5813 8.85453 11.573 8.85453Z" fill="#F7C12B"/>
<path d="M2.58984 10.6145C2.87754 9.43197 3.74908 6.55423 6.40321 4.10521C6.95039 3.60083 10.2391 0.653032 14.8987 0.667042C19.8713 0.681052 24.5787 4.06318 26.8493 9.21061" stroke="#F7C12B" stroke-miterlimit="10"/>
<path d="M3.15479 19.0212C3.5412 20.2092 4.62146 22.9721 7.39123 25.0429C12.5331 28.8873 18.71 26.7745 19.2318 26.5868C25.4765 24.3311 27.2534 18.2058 27.4114 17.6201" stroke="#F7C12B" stroke-miterlimit="10"/>
<path d="M2.58992 19.3007C3.83611 19.3007 4.84635 18.2971 4.84635 17.0591C4.84635 15.821 3.83611 14.8174 2.58992 14.8174C1.34373 14.8174 0.333496 15.821 0.333496 17.0591C0.333496 18.2971 1.34373 19.3007 2.58992 19.3007Z" fill="#F7C12B"/>
<path d="M27.4105 13.416C28.6567 13.416 29.6669 12.4123 29.6669 11.1743C29.6669 9.93625 28.6567 8.93262 27.4105 8.93262C26.1643 8.93262 25.1541 9.93625 25.1541 11.1743C25.1541 12.4123 26.1643 13.416 27.4105 13.416Z" fill="#F7C12B"/>
</svg>
