<svg width="340" height="361" viewBox="0 0 340 361" fill="none" xmlns="http://www.w3.org/2000/svg">
<path d="M170 361C263.888 361 340 285.022 340 191.299C340 97.576 263.888 21.5984 170 21.5984C76.1116 21.5984 0 97.576 0 191.299C0 285.022 76.1116 361 170 361Z" fill="url(#paint0_linear_2240_2814)"/>
<path d="M246.935 320.852L227.318 308.308L252.87 315.638C268.922 300.273 280.681 278.987 280.681 278.987C280.681 278.987 237.688 252.684 211.205 259.703C184.722 266.722 179.639 284.946 184.777 304.404C189.914 323.863 203.326 337.186 229.809 330.167C235.704 328.603 241.494 325.199 246.935 320.852Z" fill="#F2F2F2"/>
<path d="M225.367 304.262L224.062 304.608C208.867 308.55 196.351 309.124 186.687 306.304C186.545 306.265 186.408 306.218 186.267 306.18L186.46 305.525L186.654 304.899C197.13 308.094 210.376 306.697 223.63 303.26C224.058 303.154 224.493 303.045 224.924 302.924C230.522 301.42 236.098 299.574 241.459 297.565C241.876 297.413 242.297 297.253 242.718 297.093C249.779 294.404 256.43 291.464 262.161 288.739C262.567 288.548 262.972 288.351 263.37 288.155C273.053 283.504 279.914 279.559 281.43 278.672C281.616 278.567 281.718 278.506 281.742 278.492L282.079 279.061L282.087 279.066L282.425 279.641C282.401 279.655 282.062 279.862 281.425 280.225C279.049 281.596 272.577 285.237 263.88 289.433C263.487 289.621 263.082 289.818 262.677 290.009C258.027 292.225 252.798 294.574 247.247 296.807C245.854 297.37 244.475 297.909 243.11 298.423C242.691 298.589 242.27 298.749 241.854 298.901C236.059 301.075 230.563 302.861 225.367 304.262Z" fill="white"/>
<path d="M263.88 289.435C263.707 289.016 263.533 288.591 263.37 288.157C262.925 286.977 262.54 285.774 262.218 284.555C260.839 279.359 260.641 273.919 261.638 268.636C261.224 268.455 260.81 268.274 260.387 268.088C259.286 273.659 259.47 279.408 260.926 284.897C261.27 286.199 261.682 287.482 262.162 288.74C262.323 289.168 262.497 289.593 262.677 290.01C264.135 293.455 266.107 296.658 268.525 299.51C268.806 299.137 269.084 298.773 269.356 298.417C267.099 295.709 265.254 292.682 263.88 289.435Z" fill="white"/>
<path d="M243.11 298.424C242.967 297.984 242.836 297.54 242.718 297.093C242.676 296.959 242.638 296.817 242.602 296.681C241.115 291.049 241.009 285.14 242.294 279.458C243.578 273.776 246.215 268.49 249.98 264.05C249.53 263.892 249.081 263.734 248.626 263.584C244.843 268.175 242.206 273.602 240.934 279.418C239.661 285.233 239.79 291.268 241.309 297.023C241.357 297.205 241.405 297.386 241.46 297.566C241.586 298.017 241.716 298.46 241.854 298.902C244.032 305.721 248.125 311.768 253.643 316.319C253.97 316.011 254.297 315.702 254.621 315.387C249.219 310.975 245.218 305.08 243.11 298.424Z" fill="white"/>
<path d="M225.367 304.261C225.209 303.818 225.064 303.372 224.925 302.924C224.777 302.443 224.636 301.961 224.508 301.475C222.518 293.905 223.029 285.893 225.966 278.638C228.901 271.383 234.104 265.277 240.794 261.232C240.193 261.079 239.599 260.925 239.002 260.785C232.4 265.095 227.322 271.378 224.487 278.744C221.653 286.111 221.208 294.184 223.215 301.818C223.343 302.304 223.478 302.788 223.63 303.26C223.765 303.716 223.91 304.162 224.062 304.607C227.194 313.573 233.609 321.009 242.009 325.415C242.451 325.15 242.882 324.872 243.319 324.588C234.925 320.411 228.485 313.117 225.367 304.261Z" fill="white"/>
<path d="M199.411 330.809L102.402 291.688C96.5894 289.336 91.9447 284.769 89.4877 278.991C87.0304 273.212 86.9615 266.693 89.2961 260.863L188.135 14.8461C190.483 9.02188 195.04 4.36837 200.808 1.9066C206.576 -0.555187 213.082 -0.62424 218.901 1.7146L315.909 40.8365C321.723 43.1886 326.369 47.7547 328.823 53.5335C331.281 59.3123 331.352 65.8316 329.015 71.661L230.178 317.677C227.83 323.502 223.272 328.155 217.505 330.617C211.737 333.08 205.23 333.147 199.411 330.809Z" fill="#0F1B2B"/>
<path d="M307.026 51.997L296.475 47.1725C295.533 46.7428 294.48 46.7554 293.546 47.2073C292.612 47.6593 291.874 48.5136 291.494 49.5829C290.717 51.7693 289.209 53.5162 287.299 54.4402C285.39 55.3643 283.236 55.3899 281.31 54.5117L229.71 30.915C227.785 30.0326 226.248 28.3187 225.434 26.1496C224.621 23.9805 224.598 21.5334 225.372 19.3454C225.749 18.2752 225.739 17.0783 225.341 16.0174C224.943 14.9565 224.191 14.1182 223.249 13.6866L213.947 9.43235C209.634 7.4678 204.813 7.52619 200.539 9.59476C196.265 11.6634 192.887 15.5732 191.147 20.467L95.2607 291.101C93.5314 296 93.5831 301.478 95.4038 306.333C97.2246 311.189 100.666 315.026 104.973 317.004L198.053 359.567C202.365 361.532 207.186 361.474 211.46 359.406C215.734 357.338 219.112 353.427 220.852 348.535L316.738 77.8994C318.469 73.0007 318.417 67.5229 316.596 62.6669C314.775 57.8112 311.332 53.9739 307.026 51.997Z" fill="white"/>
<path d="M275.143 38.0233L245.35 26.008C245.067 25.8942 244.842 25.6727 244.723 25.3923C244.603 25.1119 244.6 24.7956 244.714 24.5128C244.828 24.2301 245.049 24.0041 245.328 23.8847C245.608 23.7652 245.924 23.7621 246.206 23.8758L276 35.8912C276.139 35.9474 276.267 36.0307 276.374 36.1365C276.482 36.242 276.568 36.3679 276.627 36.5068C276.686 36.6456 276.717 36.7946 276.718 36.9455C276.72 37.0964 276.692 37.2464 276.635 37.3861C276.579 37.5262 276.496 37.6536 276.391 37.7616C276.285 37.8693 276.159 37.9554 276.021 38.0143C275.882 38.0736 275.734 38.1047 275.583 38.1063C275.432 38.1078 275.283 38.0794 275.143 38.0233Z" fill="white"/>
<path d="M280.254 39.7637C280.761 39.7637 281.172 39.3521 281.172 38.8445C281.172 38.3367 280.761 37.925 280.254 37.925C279.747 37.925 279.336 38.3367 279.336 38.8445C279.336 39.3521 279.747 39.7637 280.254 39.7637Z" fill="white"/>
<path d="M299.722 147.039C299.214 146.834 298.809 146.435 298.594 145.93C298.38 145.426 298.374 144.856 298.577 144.348L313.653 106.821C313.86 106.313 314.256 105.907 314.76 105.693C315.263 105.478 315.832 105.473 316.339 105.677C316.846 105.882 317.254 106.28 317.467 106.784C317.684 107.289 317.687 107.858 317.486 108.366L302.408 145.892C302.203 146.401 301.805 146.807 301.302 147.022C300.798 147.237 300.23 147.243 299.722 147.039Z" fill="#0F1B2B"/>
<path d="M169.125 62.1634C168.617 61.9583 168.212 61.5596 167.997 61.0548C167.783 60.5504 167.777 59.9811 167.981 59.4723L171.407 50.9438C171.508 50.6911 171.658 50.4612 171.847 50.2668C172.037 50.0721 172.263 49.9172 172.513 49.8105C172.762 49.7034 173.031 49.6472 173.302 49.6442C173.573 49.6414 173.843 49.6923 174.095 49.7938C174.346 49.8953 174.576 50.0456 174.77 50.2359C174.963 50.4266 175.118 50.6534 175.224 50.9036C175.33 51.1539 175.386 51.4226 175.388 51.6948C175.391 51.9666 175.34 52.2363 175.238 52.4883L171.811 61.0172C171.606 61.5257 171.208 61.932 170.705 62.1468C170.201 62.3618 169.633 62.3677 169.125 62.1634Z" fill="#0F1B2B"/>
<path d="M162.786 77.9409C162.279 77.7354 161.873 77.3368 161.659 76.8323C161.444 76.3275 161.438 75.7583 161.642 75.2495L165.068 66.7209C165.169 66.4682 165.319 66.2383 165.509 66.0437C165.698 65.8493 165.924 65.6941 166.174 65.5873C166.424 65.4802 166.692 65.4238 166.963 65.421C167.235 65.4182 167.504 65.4691 167.756 65.5707C168.008 65.6722 168.237 65.8224 168.431 66.0128C168.625 66.2035 168.779 66.4303 168.885 66.6805C168.991 66.931 169.047 67.1998 169.05 67.4716C169.052 67.7438 169.001 68.0134 168.899 68.2655L165.472 76.7944C165.268 77.3028 164.87 77.7092 164.366 77.924C163.862 78.139 163.294 78.1449 162.786 77.9409Z" fill="#0F1B2B"/>
<path d="M253.812 114.161L212.601 97.5415C211.757 97.1984 211.082 96.5344 210.725 95.6948C210.368 94.855 210.357 93.9077 210.695 93.0598L220.585 68.4415C220.928 67.5955 221.59 66.9197 222.428 66.5621C223.267 66.2042 224.212 66.1934 225.058 66.5319L266.268 83.1512C267.113 83.4943 267.787 84.158 268.144 84.9975C268.502 85.8374 268.512 86.7846 268.175 87.6322L258.284 112.251C257.942 113.097 257.279 113.772 256.441 114.13C255.603 114.488 254.658 114.499 253.812 114.161ZM224.364 68.2638C223.976 68.1089 223.542 68.1138 223.158 68.278C222.774 68.4421 222.47 68.7516 222.313 69.1394L212.424 93.7559C212.269 94.1447 212.274 94.5788 212.438 94.9636C212.601 95.3486 212.91 95.6529 213.297 95.8102L254.505 112.428C254.893 112.583 255.327 112.579 255.711 112.414C256.095 112.251 256.399 111.94 256.556 111.553L266.446 86.9364C266.601 86.5477 266.596 86.1135 266.432 85.7288C266.268 85.344 265.959 85.0395 265.572 84.8824L224.364 68.2638Z" fill="#0F1B2B"/>
<path d="M254.056 98.4954L254.054 98.4945L222.242 85.6657C221.798 85.4855 221.421 85.173 221.161 84.7703C220.901 84.3676 220.771 83.8946 220.789 83.4155L221.389 68.488C221.404 68.1159 221.508 67.753 221.692 67.4297C221.876 67.106 222.135 66.8317 222.447 66.6293C222.759 66.4269 223.115 66.3025 223.485 66.2664C223.854 66.2306 224.228 66.284 224.572 66.4222L266.673 83.3173C267.242 83.546 267.697 83.9906 267.94 84.5546C268.183 85.1187 268.194 85.7558 267.969 86.3275L268.107 86.4661L266.787 87.7833V87.783L256.559 97.9857C256.238 98.3072 255.829 98.5272 255.384 98.6176C254.939 98.7083 254.477 98.666 254.056 98.4954Z" fill="#0F1B2B"/>
<path d="M230.168 99.5808L216.019 93.8751C215.671 93.7345 215.392 93.4608 215.245 93.1146C215.098 92.7681 215.094 92.3775 215.235 92.0285C215.375 91.6792 215.648 91.4003 215.993 91.2525C216.339 91.105 216.729 91.101 217.077 91.2414L231.226 96.947C231.574 97.0877 231.852 97.3614 232 97.7076C232.147 98.0538 232.151 98.4447 232.01 98.7937C231.87 99.143 231.597 99.4219 231.252 99.5694C230.906 99.7172 230.516 99.7212 230.168 99.5808Z" fill="#0F1B2B"/>
<path d="M238.927 94.8585C240.84 94.8585 242.391 93.305 242.391 91.3886C242.391 89.4722 240.84 87.9187 238.927 87.9187C237.014 87.9187 235.464 89.4722 235.464 91.3886C235.464 93.305 237.014 94.8585 238.927 94.8585Z" fill="white"/>
<path d="M192.36 267.118L151.149 250.498C150.305 250.155 149.631 249.491 149.273 248.652C148.916 247.812 148.905 246.865 149.243 246.017L159.134 221.399C159.476 220.553 160.139 219.877 160.977 219.519C161.815 219.161 162.76 219.15 163.607 219.489L204.817 236.108C205.661 236.451 206.336 237.115 206.693 237.955C207.05 238.794 207.061 239.741 206.723 240.589L196.833 265.208C196.49 266.053 195.828 266.729 194.99 267.087C194.152 267.445 193.206 267.456 192.36 267.118ZM162.912 221.221C162.524 221.066 162.091 221.071 161.707 221.235C161.323 221.399 161.019 221.709 160.862 222.096L150.972 246.713C150.818 247.101 150.822 247.536 150.986 247.921C151.15 248.305 151.459 248.61 151.846 248.767L193.054 265.385C193.441 265.54 193.875 265.535 194.26 265.371C194.644 265.207 194.948 264.898 195.105 264.509L204.995 239.893C205.149 239.504 205.144 239.07 204.98 238.686C204.817 238.301 204.508 237.997 204.121 237.839L162.912 221.221Z" fill="#0F1B2B"/>
<path d="M192.604 251.452L192.602 251.451L160.79 238.622C160.347 238.442 159.969 238.129 159.709 237.727C159.449 237.324 159.32 236.851 159.337 236.372L159.938 221.444C159.953 221.073 160.057 220.709 160.241 220.386C160.425 220.063 160.684 219.788 160.996 219.586C161.308 219.384 161.664 219.259 162.033 219.223C162.403 219.187 162.776 219.24 163.121 219.379L205.221 236.274C205.79 236.502 206.246 236.947 206.489 237.511C206.732 238.075 206.742 238.712 206.518 239.284L206.656 239.422L205.336 240.74L205.336 240.74L195.108 250.942C194.787 251.264 194.378 251.484 193.933 251.574C193.488 251.665 193.026 251.622 192.604 251.452Z" fill="#0F1B2B"/>
<path d="M168.716 252.536L154.568 246.83C154.219 246.69 153.941 246.416 153.794 246.07C153.647 245.724 153.643 245.333 153.783 244.984C153.924 244.635 154.196 244.355 154.542 244.208C154.887 244.06 155.277 244.056 155.626 244.197L169.774 249.903C169.947 249.972 170.104 250.075 170.237 250.205C170.37 250.336 170.476 250.492 170.549 250.663C170.622 250.834 170.66 251.019 170.662 251.205C170.664 251.392 170.629 251.576 170.56 251.749C170.49 251.922 170.387 252.08 170.257 252.213C170.127 252.346 169.972 252.452 169.801 252.525C169.629 252.598 169.445 252.637 169.259 252.639C169.073 252.641 168.889 252.606 168.716 252.536Z" fill="#0F1B2B"/>
<path d="M177.476 247.814C179.389 247.814 180.939 246.26 180.939 244.344C180.939 242.427 179.389 240.874 177.476 240.874C175.563 240.874 174.012 242.427 174.012 244.344C174.012 246.26 175.563 247.814 177.476 247.814Z" fill="white"/>
<path d="M208.687 204.769C229.608 204.769 246.569 187.777 246.569 166.815C246.569 145.854 229.608 128.861 208.687 128.861C187.765 128.861 170.805 145.854 170.805 166.815C170.805 187.777 187.765 204.769 208.687 204.769Z" fill="#E9FFDF"/>
<path d="M199.332 186.331C211.377 191.139 224.895 185.665 229.526 174.104C234.157 162.543 228.147 149.274 216.103 144.466C204.058 139.658 190.54 145.133 185.909 156.693C181.278 168.254 187.288 181.524 199.332 186.331Z" fill="#FFCE45"/>
<path d="M187.278 164.213C188.737 162.722 190.653 162.494 191.512 162.463C191.466 160.874 186.467 158.852 184.695 161.695C183.319 163.904 185.82 165.705 187.278 164.213Z" fill="#0F1B2B"/>
<path d="M201.323 181.251C200.386 179.07 201.233 176.852 201.697 175.884C199.764 175.343 194.421 180.155 196.796 183.189C198.641 185.546 202.259 183.432 201.323 181.251Z" fill="#0F1B2B"/>
<path d="M194.884 168.159C194.853 166.003 198.526 163.997 199.922 162.804C182.959 162.963 187.47 176.111 194.068 176.965C200.665 177.819 198.373 170.46 204.159 168.602C204.098 168.006 204.573 167.207 202.797 166.035C201.02 164.864 196.486 166.657 194.884 168.159Z" fill="#0F1B2B"/>
<path fill-rule="evenodd" clip-rule="evenodd" d="M227.847 168.581C222.12 171.118 215.057 171.351 208.352 168.675C201.647 165.998 196.692 160.968 194.296 155.189C195.372 162.334 200.059 168.708 207.197 171.557C214.335 174.407 222.132 173.017 227.847 168.581Z" fill="#0F1B2B"/>
<path d="M216.943 164.227C219.259 165.151 222.038 163.652 223.15 160.877C224.261 158.102 223.284 155.104 220.968 154.179C218.652 153.254 215.873 154.754 214.762 157.529C213.65 160.303 214.627 163.302 216.943 164.227Z" fill="#0F1B2B"/>
<path d="M205.201 159.54C207.517 160.464 210.295 158.965 211.407 156.19C212.518 153.415 211.542 150.417 209.225 149.492C206.909 148.567 204.131 150.067 203.019 152.842C201.908 155.616 202.884 158.615 205.201 159.54Z" fill="#0F1B2B"/>
<path d="M106.317 194.598C106.32 193.872 106.165 193.154 105.862 192.494C105.559 191.835 105.115 191.25 104.561 190.781C104.008 190.312 103.359 189.97 102.66 189.78C101.96 189.589 101.228 189.555 100.514 189.679L91.9842 174.236L87.7376 182.361L96.4886 195.78C96.776 196.968 97.4882 198.01 98.4906 198.707C99.4926 199.404 100.715 199.708 101.927 199.562C103.138 199.417 104.254 198.831 105.063 197.916C105.872 197.001 106.318 195.82 106.317 194.598Z" fill="#9E616A"/>
<path d="M100.806 132.222L92.0346 131.605C92.0346 131.605 90.9543 131.458 87.9827 136.179C85.0114 140.9 74.8263 164.839 74.8263 164.839L92.6704 190.788L98.4662 185.007L88.1045 164.127L98.0359 150.153L100.806 132.222Z" fill="#CACACA"/>
<path d="M197.505 160.275C196.917 160.499 196.287 160.592 195.66 160.547C195.032 160.501 194.422 160.318 193.873 160.011C193.323 159.703 192.848 159.279 192.48 158.768C192.112 158.256 191.861 157.67 191.743 157.051L176.613 154.819L181.908 148.881L195.464 151.911C196.515 151.782 197.577 152.045 198.449 152.648C199.32 153.251 199.941 154.154 200.192 155.185C200.444 156.216 200.309 157.303 199.814 158.241C199.319 159.179 198.497 159.903 197.505 160.275Z" fill="#9E616A"/>
<path d="M139.344 326.326H145.81L148.885 301.34L139.343 301.341L139.344 326.326Z" fill="#9E616A"/>
<path d="M137.695 324.212H139.515L146.62 321.318L150.428 324.212H150.429C152.581 324.212 154.644 325.07 156.166 326.594C157.688 328.118 158.543 330.185 158.543 332.342V332.607H137.695L137.695 324.212Z" fill="#2F2E41"/>
<path d="M100.342 326.326H106.808L109.884 301.34L100.341 301.341L100.342 326.326Z" fill="#9E616A"/>
<path d="M98.6924 324.212H100.512L107.617 321.318L111.426 324.212H111.426C113.578 324.212 115.642 325.07 117.164 326.594C118.686 328.118 119.541 330.185 119.541 332.342V332.607H98.693L98.6924 324.212Z" fill="#2F2E41"/>
<path d="M102.836 203.287L98.5626 229.095L99.9995 312.058H110.518L126.677 224.302L138.301 310.614L148.876 310.155L154.154 223.033L149.411 200.794L102.836 203.287Z" fill="#2F2E41"/>
<path d="M141.481 126.535L130.223 124.873L127.83 118.647L111.97 118.625L108.407 126.755L92.2006 131.657L105.628 177.868C105.628 177.868 98.2279 195.042 100.048 195.116C101.868 195.189 102.764 197.796 101.495 199.166C100.226 200.536 97.6786 199.665 98.9521 201.746C99.6815 202.872 100.17 204.138 100.387 205.462C100.387 205.462 154.087 216.949 151.112 202.138C150.742 200.296 146.255 174.788 146.255 174.788C146.255 174.788 150.163 170.456 148.493 168.735C146.823 167.013 147.705 148.833 147.705 148.833L141.481 126.535Z" fill="#CACACA"/>
<path d="M139.639 128.554L141.481 126.535L166.513 141.24L187.693 149.703L188.103 157.107L160.597 153.817L141.128 144.279L139.639 128.554Z" fill="#CACACA"/>
<path d="M132.678 100.791C132.678 102.535 132.336 104.261 131.67 105.872C131.004 107.482 130.028 108.946 128.798 110.178C127.567 111.411 126.106 112.389 124.499 113.056C122.891 113.723 121.168 114.067 119.428 114.067C118.385 114.065 117.345 113.943 116.329 113.704C113.909 113.122 111.701 111.869 109.959 110.088C108.216 108.308 107.009 106.072 106.476 103.636C105.942 101.2 106.104 98.6634 106.943 96.3157C107.781 93.9679 109.263 91.9041 111.217 90.3604C113.172 88.8164 115.521 87.8553 117.995 87.5869C120.469 87.3181 122.969 87.7529 125.209 88.8414C127.448 89.9297 129.336 91.6276 130.657 93.7411C131.978 95.8544 132.678 98.2978 132.678 100.791Z" fill="#9E616A"/>
<path d="M122.977 111.557L113.461 113.395C112.574 113.636 111.645 113.674 110.741 113.508C109.326 113.135 108.377 111.826 107.653 110.552C104.293 104.582 103.235 97.5849 104.679 90.8857C105.004 89.4069 105.699 87.7129 107.18 87.4115C107.61 87.3242 108.097 87.3587 108.437 87.081C108.939 86.6722 108.774 85.8058 108.281 85.3862C107.746 85.0162 107.115 84.8107 106.464 84.7944C106.884 84.2998 107.404 83.8999 107.99 83.621C108.575 83.3421 109.213 83.1903 109.861 83.1761L107.315 81.7586C108.541 80.9064 110.188 80.9841 111.635 81.3525C113.082 81.7206 114.474 82.3445 115.959 82.484C117.825 82.6592 119.666 82.0585 121.525 81.8265C124.3 81.525 127.102 82.027 129.601 83.2729C132.099 84.5185 134.188 86.4562 135.621 88.8555C136.126 89.6559 136.446 90.559 136.557 91.4991C136.608 91.9693 136.549 92.4451 136.385 92.8882C136.22 93.3316 135.955 93.7305 135.61 94.053C134.568 94.9311 132.926 94.8021 131.917 95.7176C131.139 96.4235 130.945 97.563 130.901 98.6136C130.857 99.6642 130.907 100.762 130.457 101.713C130.008 102.663 128.835 103.377 127.897 102.905C127.856 101.603 126.359 100.682 125.087 100.951C123.815 101.22 122.876 102.378 122.51 103.628C122.144 104.877 122.253 106.212 122.412 107.505C122.572 108.797 122.779 110.105 122.6 111.395" fill="#2F2E41"/>
<path d="M281.689 333.231H15.9435C15.8141 333.231 15.6901 333.179 15.5987 333.086C15.5074 332.997 15.4561 332.87 15.4561 332.74C15.4561 332.611 15.5074 332.487 15.5987 332.395C15.6901 332.305 15.8141 332.253 15.9435 332.253H281.689C281.819 332.253 281.943 332.302 282.035 332.395C282.126 332.487 282.178 332.611 282.178 332.74C282.178 332.87 282.126 332.997 282.035 333.089C281.943 333.179 281.819 333.231 281.689 333.231Z" fill="#CACACA"/>
<defs>
<linearGradient id="paint0_linear_2240_2814" x1="170" y1="21.5984" x2="170" y2="361" gradientUnits="userSpaceOnUse">
<stop stop-color="#F7C12B"/>
<stop offset="1" stop-color="white" stop-opacity="0"/>
</linearGradient>
</defs>
</svg>
