<svg width="39" height="39" viewBox="0 0 39 39" fill="none" xmlns="http://www.w3.org/2000/svg">
<circle cx="19.5" cy="19.5" r="19.5" fill="#2D5181"/>
<path d="M25.4258 18.4397C26.5012 18.4397 27.0388 18.6862 27.0388 19.1791C27.0388 19.4927 26.8596 20.0603 26.5012 20.8817C26.1427 21.6957 25.844 22.2782 25.605 22.6292C25.3661 22.9802 25.1308 23.1557 24.8993 23.1557C24.6678 23.1557 24.3915 23.0623 24.0704 22.8756C23.7493 22.6815 23.4207 22.4724 23.0846 22.2483C22.756 22.0168 22.3341 21.7965 21.8188 21.5874C21.3036 21.3783 20.7957 21.2588 20.2954 21.229C19.5486 23.9025 19.1304 25.3811 19.0408 25.6649C18.9587 25.9486 18.8317 26.2362 18.6599 26.5274C18.4882 26.8186 18.2828 27.0576 18.0438 27.2443C17.8049 27.431 17.5584 27.5841 17.3045 27.7036C17.0581 27.8231 16.7556 27.9127 16.3972 27.9724C14.702 28.2338 13.0591 28.1703 11.4684 27.782C10.5797 27.5654 9.8703 27.3003 9.34009 26.9867C8.80987 26.6656 8.54476 26.3556 8.54476 26.0569C8.56717 25.8852 8.64931 25.7507 8.7912 25.6537C8.92562 25.5491 9.08618 25.4968 9.27288 25.4968C9.95992 25.4968 10.464 25.3886 10.7851 25.172C11.1137 24.948 11.4236 24.541 11.7149 23.951C12.0061 23.3536 12.2787 22.6889 12.5326 21.9571C12.794 21.2252 13.0329 20.5531 13.2495 19.9408C13.4661 19.3284 13.7162 18.7048 14 18.0701C14.6198 16.7035 15.4114 15.7887 16.3748 15.3257C17.3381 14.8626 18.7981 14.6311 20.7547 14.6311C21.9196 14.6311 22.5021 14.8253 22.5021 15.2136C22.5021 15.363 22.4312 15.5758 22.2893 15.8521C21.7292 16.9051 21.2139 18.1933 20.7435 19.7167C21.3782 19.3807 22.1175 19.0857 22.9614 18.8318C23.8127 18.5704 24.6342 18.4397 25.4258 18.4397ZM28.8423 16.1098C27.7595 15.1614 26.4377 14.3959 24.8769 13.8134C23.3236 13.2235 21.7554 12.9285 20.1722 12.9285C19.2238 12.9285 18.0812 13.0554 16.7444 13.3093C15.4077 13.5558 14.4182 13.8246 13.776 14.1159C13.1337 14.3996 12.7118 14.5415 12.5102 14.5415C12.2637 14.5415 12.1405 14.4258 12.1405 14.1943C12.1405 13.9553 12.3459 13.6678 12.7566 13.3317C13.1673 12.9957 13.7648 12.6484 14.5489 12.29C15.3405 11.9315 16.2329 11.5955 17.2261 11.2818C19.4963 10.5798 21.9831 10.2289 24.6865 10.2289C26.4489 10.2289 27.9238 10.3035 29.1112 10.4529C31.3142 10.7143 32.4157 11.1325 32.4157 11.7075C32.3933 12.0137 32.2439 12.5215 31.9676 13.2309C31.6913 13.9404 31.3627 14.6199 30.9819 15.2696C30.601 15.9119 30.2874 16.2703 30.0409 16.345C29.8841 16.3898 29.7049 16.4122 29.5032 16.4122C29.3091 16.4122 29.0888 16.3114 28.8423 16.1098Z" fill="#F7C12B"/>
</svg>
